<mxfile host="app.diagrams.net" modified="2024-03-24T16:53:01.903Z" agent="Mozilla/5.0 (Windows NT 10.0; Win64; x64; rv:124.0) Gecko/20100101 Firefox/124.0" etag="xZFkdttvjjFjMqMv9WK_" version="24.1.0" type="device" pages="8">
  <diagram name="1. szintű fizikai AFD" id="UahW5A8NBRqCCIroNfMy">
    <mxGraphModel dx="1434" dy="774" grid="1" gridSize="10" guides="1" tooltips="1" connect="1" arrows="1" fold="1" page="1" pageScale="1" pageWidth="827" pageHeight="1169" math="0" shadow="0">
      <root>
        <mxCell id="0" />
        <mxCell id="1" parent="0" />
        <mxCell id="0eStB5i_XIA8hYgthE-n-1" value="Repülőjegy ügyintézés" style="html=1;dashed=0;whitespace=wrap;shape=mxgraph.dfd.process;align=center;container=1;collapsible=0;spacingTop=30;" parent="1" vertex="1">
          <mxGeometry x="570" y="180" width="160" height="120" as="geometry" />
        </mxCell>
        <mxCell id="0eStB5i_XIA8hYgthE-n-2" value="1." style="text;html=1;strokeColor=none;fillColor=none;align=center;verticalAlign=middle;whiteSpace=wrap;rounded=0;movable=0;resizable=0;rotatable=0;cloneable=0;deletable=0;connectable=0;allowArrows=0;pointerEvents=1;" parent="0eStB5i_XIA8hYgthE-n-1" vertex="1">
          <mxGeometry width="35" height="30" as="geometry" />
        </mxCell>
        <mxCell id="0eStB5i_XIA8hYgthE-n-3" value="Weboldal" style="text;html=1;strokeColor=none;fillColor=none;align=left;verticalAlign=middle;whiteSpace=wrap;rounded=0;movable=0;resizable=0;connectable=0;allowArrows=0;rotatable=0;cloneable=0;deletable=0;spacingLeft=6;autosize=1;resizeWidth=0;" parent="0eStB5i_XIA8hYgthE-n-1" vertex="1">
          <mxGeometry x="35" width="80" height="30" as="geometry" />
        </mxCell>
        <mxCell id="0eStB5i_XIA8hYgthE-n-4" value="Felhasználó" style="ellipse;whiteSpace=wrap;html=1;" parent="1" vertex="1">
          <mxGeometry x="350" y="370" width="120" height="80" as="geometry" />
        </mxCell>
        <mxCell id="0eStB5i_XIA8hYgthE-n-5" value="személyes adatok&lt;br&gt;vásárlás részletei" style="endArrow=classic;html=1;rounded=0;verticalAlign=bottom;exitX=0;exitY=0;exitDx=0;exitDy=0;" parent="1" source="0eStB5i_XIA8hYgthE-n-4" edge="1">
          <mxGeometry x="0.462" y="2" width="50" height="50" relative="1" as="geometry">
            <mxPoint x="390" y="240" as="sourcePoint" />
            <mxPoint x="570" y="212" as="targetPoint" />
            <Array as="points">
              <mxPoint x="368" y="212" />
            </Array>
            <mxPoint as="offset" />
          </mxGeometry>
        </mxCell>
        <mxCell id="0eStB5i_XIA8hYgthE-n-6" value="repülőjegy (és biztosítás)" style="shape=flexArrow;endArrow=classic;html=1;rounded=0;width=20;startWidth=0;endWidth=0;entryX=0.753;entryY=0.067;entryDx=0;entryDy=0;entryPerimeter=0;exitX=0;exitY=0.745;exitDx=0;exitDy=0;exitPerimeter=0;" parent="1" source="0eStB5i_XIA8hYgthE-n-1" target="0eStB5i_XIA8hYgthE-n-4" edge="1">
          <mxGeometry x="-0.4053" y="-1" width="50" height="50" relative="1" as="geometry">
            <mxPoint x="570" y="268" as="sourcePoint" />
            <mxPoint x="440" y="330" as="targetPoint" />
            <mxPoint as="offset" />
            <Array as="points">
              <mxPoint x="440" y="270" />
            </Array>
          </mxGeometry>
        </mxCell>
        <mxCell id="0eStB5i_XIA8hYgthE-n-7" value="Információk kérése" style="html=1;dashed=0;whitespace=wrap;shape=mxgraph.dfd.process;align=center;container=1;collapsible=0;spacingTop=30;" parent="1" vertex="1">
          <mxGeometry x="630" y="410" width="160" height="120" as="geometry" />
        </mxCell>
        <mxCell id="0eStB5i_XIA8hYgthE-n-8" value="2." style="text;html=1;strokeColor=none;fillColor=none;align=center;verticalAlign=middle;whiteSpace=wrap;rounded=0;movable=0;resizable=0;rotatable=0;cloneable=0;deletable=0;connectable=0;allowArrows=0;pointerEvents=1;" parent="0eStB5i_XIA8hYgthE-n-7" vertex="1">
          <mxGeometry width="35" height="30" as="geometry" />
        </mxCell>
        <mxCell id="0eStB5i_XIA8hYgthE-n-9" value="Weboldal" style="text;html=1;strokeColor=none;fillColor=none;align=left;verticalAlign=middle;whiteSpace=wrap;rounded=0;movable=0;resizable=0;connectable=0;allowArrows=0;rotatable=0;cloneable=0;deletable=0;spacingLeft=6;autosize=1;resizeWidth=0;" parent="0eStB5i_XIA8hYgthE-n-7" vertex="1">
          <mxGeometry x="35" width="80" height="30" as="geometry" />
        </mxCell>
        <mxCell id="0eStB5i_XIA8hYgthE-n-10" value="Honnan, hova,&lt;br&gt;mikor, melyik légitársasággal,&lt;br&gt;mennyiért stb" style="endArrow=classic;html=1;rounded=0;verticalAlign=bottom;entryX=0;entryY=0.25;entryDx=0;entryDy=0;entryPerimeter=0;" parent="1" target="0eStB5i_XIA8hYgthE-n-7" edge="1">
          <mxGeometry x="0.1111" width="50" height="50" relative="1" as="geometry">
            <mxPoint x="450" y="440" as="sourcePoint" />
            <mxPoint x="412" y="420" as="targetPoint" />
            <mxPoint as="offset" />
          </mxGeometry>
        </mxCell>
        <mxCell id="0eStB5i_XIA8hYgthE-n-11" value="lehetőségek" style="endArrow=classic;html=1;rounded=0;verticalAlign=bottom;exitX=0;exitY=0.833;exitDx=0;exitDy=0;exitPerimeter=0;entryX=0.5;entryY=1;entryDx=0;entryDy=0;" parent="1" source="0eStB5i_XIA8hYgthE-n-7" target="0eStB5i_XIA8hYgthE-n-4" edge="1">
          <mxGeometry x="-0.2143" width="50" height="50" relative="1" as="geometry">
            <mxPoint x="590" y="480" as="sourcePoint" />
            <mxPoint x="370" y="510" as="targetPoint" />
            <mxPoint as="offset" />
            <Array as="points">
              <mxPoint x="410" y="510" />
            </Array>
          </mxGeometry>
        </mxCell>
        <mxCell id="0eStB5i_XIA8hYgthE-n-19" value="felhasználó adatai, kedvezményei" style="endArrow=classic;startArrow=classic;html=1;rounded=0;verticalAlign=bottom;exitX=1;exitY=0.292;exitDx=0;exitDy=0;exitPerimeter=0;entryX=-0.007;entryY=0.5;entryDx=0;entryDy=0;entryPerimeter=0;" parent="1" source="0eStB5i_XIA8hYgthE-n-1" edge="1">
          <mxGeometry width="50" height="50" relative="1" as="geometry">
            <mxPoint x="580" y="440" as="sourcePoint" />
            <mxPoint x="968.95" y="215" as="targetPoint" />
          </mxGeometry>
        </mxCell>
        <mxCell id="0eStB5i_XIA8hYgthE-n-20" value="felhasználó jegyei" style="endArrow=classic;startArrow=classic;html=1;rounded=0;verticalAlign=bottom;entryX=-0.02;entryY=0.533;entryDx=0;entryDy=0;entryPerimeter=0;exitX=1.006;exitY=0.806;exitDx=0;exitDy=0;exitPerimeter=0;" parent="1" source="0eStB5i_XIA8hYgthE-n-1" edge="1">
          <mxGeometry width="50" height="50" relative="1" as="geometry">
            <mxPoint x="790" y="280" as="sourcePoint" />
            <mxPoint x="967" y="275.99" as="targetPoint" />
          </mxGeometry>
        </mxCell>
        <mxCell id="0eStB5i_XIA8hYgthE-n-21" value="felhasználók adatai" style="html=1;dashed=0;whitespace=wrap;shape=mxgraph.dfd.dataStoreID;align=left;spacingLeft=33;container=1;collapsible=0;autosize=0;" parent="1" vertex="1">
          <mxGeometry x="970" y="200" width="150" height="30" as="geometry" />
        </mxCell>
        <mxCell id="0eStB5i_XIA8hYgthE-n-22" value="D1" style="text;html=1;strokeColor=none;fillColor=none;align=center;verticalAlign=middle;whiteSpace=wrap;rounded=0;movable=0;resizable=0;rotatable=0;cloneable=0;deletable=0;allowArrows=0;connectable=0;" parent="0eStB5i_XIA8hYgthE-n-21" vertex="1">
          <mxGeometry width="30" height="30" as="geometry" />
        </mxCell>
        <mxCell id="0eStB5i_XIA8hYgthE-n-23" value="jegyek" style="html=1;dashed=0;whitespace=wrap;shape=mxgraph.dfd.dataStoreID;align=left;spacingLeft=33;container=1;collapsible=0;autosize=0;" parent="1" vertex="1">
          <mxGeometry x="970" y="260" width="150" height="30" as="geometry" />
        </mxCell>
        <mxCell id="0eStB5i_XIA8hYgthE-n-24" value="D2" style="text;html=1;strokeColor=none;fillColor=none;align=center;verticalAlign=middle;whiteSpace=wrap;rounded=0;movable=0;resizable=0;rotatable=0;cloneable=0;deletable=0;allowArrows=0;connectable=0;" parent="0eStB5i_XIA8hYgthE-n-23" vertex="1">
          <mxGeometry width="30" height="30" as="geometry" />
        </mxCell>
        <mxCell id="0eStB5i_XIA8hYgthE-n-25" value="utazások" style="html=1;dashed=0;whitespace=wrap;shape=mxgraph.dfd.dataStoreID;align=left;spacingLeft=33;container=1;collapsible=0;autosize=0;" parent="1" vertex="1">
          <mxGeometry x="970" y="500" width="140" height="30" as="geometry" />
        </mxCell>
        <mxCell id="0eStB5i_XIA8hYgthE-n-26" value="D5" style="text;html=1;strokeColor=none;fillColor=none;align=center;verticalAlign=middle;whiteSpace=wrap;rounded=0;movable=0;resizable=0;rotatable=0;cloneable=0;deletable=0;allowArrows=0;connectable=0;" parent="0eStB5i_XIA8hYgthE-n-25" vertex="1">
          <mxGeometry width="30" height="30" as="geometry" />
        </mxCell>
        <mxCell id="0eStB5i_XIA8hYgthE-n-27" value="feltételeknek megfelelő lehetőségek" style="endArrow=classic;startArrow=classic;html=1;rounded=0;verticalAlign=bottom;entryX=0;entryY=0.532;entryDx=0;entryDy=0;entryPerimeter=0;exitX=1;exitY=0.883;exitDx=0;exitDy=0;exitPerimeter=0;" parent="1" source="0eStB5i_XIA8hYgthE-n-7" target="0eStB5i_XIA8hYgthE-n-25" edge="1">
          <mxGeometry x="0.0381" y="1" width="50" height="50" relative="1" as="geometry">
            <mxPoint x="440" y="420" as="sourcePoint" />
            <mxPoint x="560" y="420" as="targetPoint" />
            <mxPoint as="offset" />
          </mxGeometry>
        </mxCell>
        <mxCell id="0eStB5i_XIA8hYgthE-n-29" value="Adminisztrátor" style="ellipse;whiteSpace=wrap;html=1;" parent="1" vertex="1">
          <mxGeometry x="350" y="650" width="120" height="80" as="geometry" />
        </mxCell>
        <mxCell id="0eStB5i_XIA8hYgthE-n-30" value="Változtatások" style="html=1;dashed=0;whitespace=wrap;shape=mxgraph.dfd.process;align=center;container=1;collapsible=0;spacingTop=30;" parent="1" vertex="1">
          <mxGeometry x="630" y="630" width="160" height="120" as="geometry" />
        </mxCell>
        <mxCell id="0eStB5i_XIA8hYgthE-n-31" value="3." style="text;html=1;strokeColor=none;fillColor=none;align=center;verticalAlign=middle;whiteSpace=wrap;rounded=0;movable=0;resizable=0;rotatable=0;cloneable=0;deletable=0;connectable=0;allowArrows=0;pointerEvents=1;" parent="0eStB5i_XIA8hYgthE-n-30" vertex="1">
          <mxGeometry width="35" height="30" as="geometry" />
        </mxCell>
        <mxCell id="0eStB5i_XIA8hYgthE-n-32" value="Weboldal" style="text;html=1;strokeColor=none;fillColor=none;align=left;verticalAlign=middle;whiteSpace=wrap;rounded=0;movable=0;resizable=0;connectable=0;allowArrows=0;rotatable=0;cloneable=0;deletable=0;spacingLeft=6;autosize=1;resizeWidth=0;" parent="0eStB5i_XIA8hYgthE-n-30" vertex="1">
          <mxGeometry x="35" width="80" height="30" as="geometry" />
        </mxCell>
        <mxCell id="0eStB5i_XIA8hYgthE-n-34" value="új járat, járatváltozás, árváltozás, járat törlés" style="endArrow=classic;html=1;rounded=0;verticalAlign=bottom;" parent="1" source="0eStB5i_XIA8hYgthE-n-30" edge="1">
          <mxGeometry x="-0.4397" y="10" width="50" height="50" relative="1" as="geometry">
            <mxPoint x="870" y="700" as="sourcePoint" />
            <mxPoint x="1110" y="510" as="targetPoint" />
            <Array as="points">
              <mxPoint x="1160" y="690" />
              <mxPoint x="1160" y="510" />
            </Array>
            <mxPoint as="offset" />
          </mxGeometry>
        </mxCell>
        <mxCell id="0eStB5i_XIA8hYgthE-n-36" value="mit mire" style="endArrow=classic;html=1;rounded=0;verticalAlign=bottom;exitX=1;exitY=0.5;exitDx=0;exitDy=0;" parent="1" source="0eStB5i_XIA8hYgthE-n-29" edge="1">
          <mxGeometry width="50" height="50" relative="1" as="geometry">
            <mxPoint x="610" y="500" as="sourcePoint" />
            <mxPoint x="630" y="690" as="targetPoint" />
          </mxGeometry>
        </mxCell>
        <mxCell id="0eStB5i_XIA8hYgthE-n-37" value="szállodák" style="html=1;dashed=0;whitespace=wrap;shape=mxgraph.dfd.dataStoreID;align=left;spacingLeft=33;container=1;collapsible=0;autosize=0;" parent="1" vertex="1">
          <mxGeometry x="970" y="410" width="140" height="30" as="geometry" />
        </mxCell>
        <mxCell id="0eStB5i_XIA8hYgthE-n-38" value="D3" style="text;html=1;strokeColor=none;fillColor=none;align=center;verticalAlign=middle;whiteSpace=wrap;rounded=0;movable=0;resizable=0;rotatable=0;cloneable=0;deletable=0;allowArrows=0;connectable=0;" parent="0eStB5i_XIA8hYgthE-n-37" vertex="1">
          <mxGeometry width="30" height="30" as="geometry" />
        </mxCell>
        <mxCell id="0eStB5i_XIA8hYgthE-n-39" value="célhelyen lévő szállodák" style="endArrow=classic;startArrow=classic;html=1;rounded=0;verticalAlign=bottom;exitX=1;exitY=0.117;exitDx=0;exitDy=0;exitPerimeter=0;entryX=0;entryY=0.468;entryDx=0;entryDy=0;entryPerimeter=0;" parent="1" source="0eStB5i_XIA8hYgthE-n-7" target="0eStB5i_XIA8hYgthE-n-37" edge="1">
          <mxGeometry width="50" height="50" relative="1" as="geometry">
            <mxPoint x="790" y="500" as="sourcePoint" />
            <mxPoint x="980" y="420" as="targetPoint" />
          </mxGeometry>
        </mxCell>
        <mxCell id="0eStB5i_XIA8hYgthE-n-41" value="biztosítások" style="html=1;dashed=0;whitespace=wrap;shape=mxgraph.dfd.dataStoreID;align=left;spacingLeft=33;container=1;collapsible=0;autosize=0;" parent="1" vertex="1">
          <mxGeometry x="970" y="455" width="140" height="30" as="geometry" />
        </mxCell>
        <mxCell id="0eStB5i_XIA8hYgthE-n-42" value="D4" style="text;html=1;strokeColor=none;fillColor=none;align=center;verticalAlign=middle;whiteSpace=wrap;rounded=0;movable=0;resizable=0;rotatable=0;cloneable=0;deletable=0;allowArrows=0;connectable=0;" parent="0eStB5i_XIA8hYgthE-n-41" vertex="1">
          <mxGeometry width="30" height="30" as="geometry" />
        </mxCell>
        <mxCell id="0eStB5i_XIA8hYgthE-n-43" value="elérhető utasbiztosítások" style="endArrow=classic;startArrow=classic;html=1;rounded=0;verticalAlign=bottom;" parent="1" source="0eStB5i_XIA8hYgthE-n-7" target="0eStB5i_XIA8hYgthE-n-41" edge="1">
          <mxGeometry width="50" height="50" relative="1" as="geometry">
            <mxPoint x="790" y="500" as="sourcePoint" />
            <mxPoint x="910" y="500" as="targetPoint" />
          </mxGeometry>
        </mxCell>
        <mxCell id="0eStB5i_XIA8hYgthE-n-44" value="új hozzáadása, meglévő változtatása, régi törlése" style="endArrow=classic;html=1;rounded=0;verticalAlign=bottom;exitX=1.002;exitY=0.647;exitDx=0;exitDy=0;exitPerimeter=0;" parent="1" source="0eStB5i_XIA8hYgthE-n-30" target="0eStB5i_XIA8hYgthE-n-41" edge="1">
          <mxGeometry x="-0.5153" y="-2" width="50" height="50" relative="1" as="geometry">
            <mxPoint x="790" y="700" as="sourcePoint" />
            <mxPoint x="830" y="500" as="targetPoint" />
            <Array as="points">
              <mxPoint x="1170" y="708" />
              <mxPoint x="1170" y="470" />
            </Array>
            <mxPoint as="offset" />
          </mxGeometry>
        </mxCell>
        <mxCell id="7IvagFnknHEKO14SaSxH-1" value="új szálloda felvétele, meglévő módosítása, régi törlése" style="endArrow=classic;html=1;rounded=0;verticalAlign=bottom;exitX=1.005;exitY=0.802;exitDx=0;exitDy=0;exitPerimeter=0;" parent="1" source="0eStB5i_XIA8hYgthE-n-30" target="0eStB5i_XIA8hYgthE-n-37" edge="1">
          <mxGeometry x="-0.5912" y="-10" width="50" height="50" relative="1" as="geometry">
            <mxPoint x="720" y="500" as="sourcePoint" />
            <mxPoint x="840" y="500" as="targetPoint" />
            <Array as="points">
              <mxPoint x="1180" y="727" />
              <mxPoint x="1180" y="425" />
            </Array>
            <mxPoint as="offset" />
          </mxGeometry>
        </mxCell>
        <mxCell id="7IvagFnknHEKO14SaSxH-2" value="menetrendek" style="html=1;dashed=0;whitespace=wrap;shape=mxgraph.dfd.dataStoreID;align=left;spacingLeft=33;container=1;collapsible=0;autosize=0;" parent="1" vertex="1">
          <mxGeometry x="970" y="550" width="140" height="30" as="geometry" />
        </mxCell>
        <mxCell id="7IvagFnknHEKO14SaSxH-3" value="D6" style="text;html=1;strokeColor=none;fillColor=none;align=center;verticalAlign=middle;whiteSpace=wrap;rounded=0;movable=0;resizable=0;rotatable=0;cloneable=0;deletable=0;allowArrows=0;connectable=0;" parent="7IvagFnknHEKO14SaSxH-2" vertex="1">
          <mxGeometry width="30" height="30" as="geometry" />
        </mxCell>
        <mxCell id="7IvagFnknHEKO14SaSxH-4" value="adott járathoz lekérés" style="endArrow=classic;startArrow=classic;html=1;rounded=0;verticalAlign=bottom;" parent="1" source="0eStB5i_XIA8hYgthE-n-7" target="7IvagFnknHEKO14SaSxH-2" edge="1">
          <mxGeometry x="0.3898" y="5" width="50" height="50" relative="1" as="geometry">
            <mxPoint x="820" y="564.58" as="sourcePoint" />
            <mxPoint x="940" y="564.58" as="targetPoint" />
            <Array as="points">
              <mxPoint x="710" y="565" />
            </Array>
            <mxPoint as="offset" />
          </mxGeometry>
        </mxCell>
        <mxCell id="7IvagFnknHEKO14SaSxH-5" value="változás esetén értesítés" style="endArrow=classic;html=1;rounded=0;verticalAlign=bottom;entryX=0.243;entryY=0.957;entryDx=0;entryDy=0;entryPerimeter=0;" parent="1" target="0eStB5i_XIA8hYgthE-n-4" edge="1">
          <mxGeometry width="50" height="50" relative="1" as="geometry">
            <mxPoint x="1110" y="520" as="sourcePoint" />
            <mxPoint x="910" y="460" as="targetPoint" />
            <Array as="points">
              <mxPoint x="1150" y="520" />
              <mxPoint x="1150" y="610" />
              <mxPoint x="380" y="610" />
            </Array>
          </mxGeometry>
        </mxCell>
        <mxCell id="7IvagFnknHEKO14SaSxH-6" value="változás esetén értesítés" style="endArrow=classic;html=1;rounded=0;verticalAlign=bottom;entryX=0.343;entryY=1.006;entryDx=0;entryDy=0;entryPerimeter=0;" parent="1" source="7IvagFnknHEKO14SaSxH-2" target="0eStB5i_XIA8hYgthE-n-4" edge="1">
          <mxGeometry x="-0.0542" width="50" height="50" relative="1" as="geometry">
            <mxPoint x="790" y="460" as="sourcePoint" />
            <mxPoint x="910" y="460" as="targetPoint" />
            <Array as="points">
              <mxPoint x="1140" y="565" />
              <mxPoint x="1140" y="590" />
              <mxPoint x="392" y="590" />
            </Array>
            <mxPoint as="offset" />
          </mxGeometry>
        </mxCell>
        <mxCell id="7IvagFnknHEKO14SaSxH-7" value="1. szintű fizikai AFD" style="text;strokeColor=none;fillColor=none;html=1;fontSize=24;fontStyle=1;verticalAlign=middle;align=center;" parent="1" vertex="1">
          <mxGeometry x="430" y="110" width="100" height="40" as="geometry" />
        </mxCell>
        <mxCell id="0G2hTmfSHz44hijee7y7-1" value="Belépés" style="html=1;dashed=0;whitespace=wrap;shape=mxgraph.dfd.process;align=center;container=1;collapsible=0;spacingTop=30;" parent="1" vertex="1">
          <mxGeometry x="20" y="350" width="160" height="120" as="geometry" />
        </mxCell>
        <mxCell id="0G2hTmfSHz44hijee7y7-2" value="4." style="text;html=1;strokeColor=none;fillColor=none;align=center;verticalAlign=middle;whiteSpace=wrap;rounded=0;movable=0;resizable=0;rotatable=0;cloneable=0;deletable=0;connectable=0;allowArrows=0;pointerEvents=1;" parent="0G2hTmfSHz44hijee7y7-1" vertex="1">
          <mxGeometry width="35" height="30" as="geometry" />
        </mxCell>
        <mxCell id="0G2hTmfSHz44hijee7y7-3" value="Weboldal" style="text;html=1;strokeColor=none;fillColor=none;align=left;verticalAlign=middle;whiteSpace=wrap;rounded=0;movable=0;resizable=0;connectable=0;allowArrows=0;rotatable=0;cloneable=0;deletable=0;spacingLeft=6;autosize=1;resizeWidth=0;" parent="0G2hTmfSHz44hijee7y7-1" vertex="1">
          <mxGeometry x="35" width="80" height="30" as="geometry" />
        </mxCell>
        <mxCell id="0G2hTmfSHz44hijee7y7-4" value="azonosító" style="endArrow=classic;html=1;rounded=0;verticalAlign=bottom;entryX=1.01;entryY=0.387;entryDx=0;entryDy=0;entryPerimeter=0;exitX=0;exitY=0.33;exitDx=0;exitDy=0;exitPerimeter=0;" parent="1" source="0eStB5i_XIA8hYgthE-n-4" target="0G2hTmfSHz44hijee7y7-1" edge="1">
          <mxGeometry width="50" height="50" relative="1" as="geometry">
            <mxPoint x="710" y="450" as="sourcePoint" />
            <mxPoint x="830" y="450" as="targetPoint" />
          </mxGeometry>
        </mxCell>
        <mxCell id="0G2hTmfSHz44hijee7y7-5" value="&lt;font style=&quot;font-size: 8px;&quot;&gt;OTP&lt;br&gt;Egyszeri belépésre alkalmas jelszó&lt;/font&gt;" style="shape=flexArrow;endArrow=classic;html=1;rounded=0;width=20;startWidth=0;endWidth=0;entryX=0.089;entryY=0.797;entryDx=0;entryDy=0;entryPerimeter=0;exitX=1;exitY=0.71;exitDx=0;exitDy=0;exitPerimeter=0;endSize=5.993103448275862;" parent="1" source="0G2hTmfSHz44hijee7y7-1" target="0eStB5i_XIA8hYgthE-n-4" edge="1">
          <mxGeometry x="-0.0038" y="-1" width="50" height="50" relative="1" as="geometry">
            <mxPoint x="220" y="434" as="sourcePoint" />
            <mxPoint x="600" y="470" as="targetPoint" />
            <Array as="points">
              <mxPoint x="260" y="435" />
            </Array>
            <mxPoint as="offset" />
          </mxGeometry>
        </mxCell>
      </root>
    </mxGraphModel>
  </diagram>
  <diagram id="h6KqEDeG-SObw0z95xPy" name="2. szintű fizikai AFD">
    <mxGraphModel dx="472" dy="773" grid="1" gridSize="10" guides="1" tooltips="1" connect="1" arrows="1" fold="1" page="1" pageScale="1" pageWidth="827" pageHeight="1169" math="0" shadow="0">
      <root>
        <mxCell id="0" />
        <mxCell id="1" parent="0" />
        <mxCell id="qxFu92Zqag-RyQj4gPh6-40" value="2. szintű fizikai AFD" style="text;strokeColor=none;fillColor=none;html=1;fontSize=24;fontStyle=1;verticalAlign=middle;align=center;" parent="1" vertex="1">
          <mxGeometry x="310" y="100" width="100" height="40" as="geometry" />
        </mxCell>
        <mxCell id="qxFu92Zqag-RyQj4gPh6-45" value="" style="html=1;dashed=0;whitespace=wrap;shape=mxgraph.dfd.process;align=center;container=1;collapsible=0;spacingTop=30;" parent="1" vertex="1">
          <mxGeometry x="420" y="190" width="480" height="780" as="geometry" />
        </mxCell>
        <mxCell id="qxFu92Zqag-RyQj4gPh6-46" value="1." style="text;html=1;strokeColor=none;fillColor=none;align=center;verticalAlign=middle;whiteSpace=wrap;rounded=0;movable=0;resizable=0;rotatable=0;cloneable=0;deletable=0;connectable=0;allowArrows=0;pointerEvents=1;" parent="qxFu92Zqag-RyQj4gPh6-45" vertex="1">
          <mxGeometry width="35" height="30" as="geometry" />
        </mxCell>
        <mxCell id="qxFu92Zqag-RyQj4gPh6-47" value="Weboldal" style="text;html=1;strokeColor=none;fillColor=none;align=left;verticalAlign=middle;whiteSpace=wrap;rounded=0;movable=0;resizable=0;connectable=0;allowArrows=0;rotatable=0;cloneable=0;deletable=0;spacingLeft=6;autosize=1;resizeWidth=0;" parent="qxFu92Zqag-RyQj4gPh6-45" vertex="1">
          <mxGeometry x="35" width="80" height="30" as="geometry" />
        </mxCell>
        <mxCell id="qxFu92Zqag-RyQj4gPh6-48" value="Regisztráció" style="html=1;dashed=0;whitespace=wrap;shape=mxgraph.dfd.process2;align=center;container=1;collapsible=0;spacingTop=30;" parent="qxFu92Zqag-RyQj4gPh6-45" vertex="1">
          <mxGeometry x="151" y="43.33333333333333" width="160" height="130" as="geometry" />
        </mxCell>
        <mxCell id="qxFu92Zqag-RyQj4gPh6-49" value="1.1" style="text;html=1;strokeColor=none;fillColor=none;align=center;verticalAlign=middle;whiteSpace=wrap;rounded=0;connectable=0;allowArrows=0;editable=1;movable=0;resizable=0;rotatable=0;deletable=0;locked=0;cloneable=0;" parent="qxFu92Zqag-RyQj4gPh6-48" vertex="1">
          <mxGeometry width="35" height="30" as="geometry" />
        </mxCell>
        <mxCell id="qxFu92Zqag-RyQj4gPh6-50" value="" style="text;strokeColor=none;fillColor=none;align=left;verticalAlign=middle;whiteSpace=wrap;rounded=0;autosize=1;connectable=0;allowArrows=0;movable=0;resizable=0;rotatable=0;deletable=0;cloneable=0;spacingLeft=6;fontStyle=0;html=1;" parent="qxFu92Zqag-RyQj4gPh6-48" vertex="1">
          <mxGeometry x="35" y="-5" width="50" height="40" as="geometry" />
        </mxCell>
        <mxCell id="qxFu92Zqag-RyQj4gPh6-79" value="Utazás vásárlás" style="html=1;dashed=0;whitespace=wrap;shape=mxgraph.dfd.process2;align=center;container=1;collapsible=0;spacingTop=30;" parent="qxFu92Zqag-RyQj4gPh6-45" vertex="1">
          <mxGeometry x="151" y="329.99666666666667" width="160" height="130" as="geometry" />
        </mxCell>
        <mxCell id="qxFu92Zqag-RyQj4gPh6-80" value="1.3" style="text;html=1;strokeColor=none;fillColor=none;align=center;verticalAlign=middle;whiteSpace=wrap;rounded=0;connectable=0;allowArrows=0;editable=1;movable=0;resizable=0;rotatable=0;deletable=0;locked=0;cloneable=0;" parent="qxFu92Zqag-RyQj4gPh6-79" vertex="1">
          <mxGeometry width="35" height="30" as="geometry" />
        </mxCell>
        <mxCell id="qxFu92Zqag-RyQj4gPh6-81" value="" style="text;strokeColor=none;fillColor=none;align=left;verticalAlign=middle;whiteSpace=wrap;rounded=0;autosize=1;connectable=0;allowArrows=0;movable=0;resizable=0;rotatable=0;deletable=0;cloneable=0;spacingLeft=6;fontStyle=0;html=1;" parent="qxFu92Zqag-RyQj4gPh6-79" vertex="1">
          <mxGeometry x="35" y="-5" width="50" height="40" as="geometry" />
        </mxCell>
        <mxCell id="qxFu92Zqag-RyQj4gPh6-82" value="Lekérés" style="html=1;dashed=0;whitespace=wrap;shape=mxgraph.dfd.process2;align=center;container=1;collapsible=0;spacingTop=30;" parent="qxFu92Zqag-RyQj4gPh6-45" vertex="1">
          <mxGeometry x="151" y="480.00333333333333" width="160" height="130" as="geometry" />
        </mxCell>
        <mxCell id="qxFu92Zqag-RyQj4gPh6-83" value="1.4" style="text;html=1;strokeColor=none;fillColor=none;align=center;verticalAlign=middle;whiteSpace=wrap;rounded=0;connectable=0;allowArrows=0;editable=1;movable=0;resizable=0;rotatable=0;deletable=0;locked=0;cloneable=0;" parent="qxFu92Zqag-RyQj4gPh6-82" vertex="1">
          <mxGeometry width="35" height="30" as="geometry" />
        </mxCell>
        <mxCell id="qxFu92Zqag-RyQj4gPh6-84" value="" style="text;strokeColor=none;fillColor=none;align=left;verticalAlign=middle;whiteSpace=wrap;rounded=0;autosize=1;connectable=0;allowArrows=0;movable=0;resizable=0;rotatable=0;deletable=0;cloneable=0;spacingLeft=6;fontStyle=0;html=1;" parent="qxFu92Zqag-RyQj4gPh6-82" vertex="1">
          <mxGeometry x="35" y="-5" width="50" height="40" as="geometry" />
        </mxCell>
        <mxCell id="qxFu92Zqag-RyQj4gPh6-90" value="Módosítás" style="html=1;dashed=0;whitespace=wrap;shape=mxgraph.dfd.process2;align=center;container=1;collapsible=0;spacingTop=30;" parent="qxFu92Zqag-RyQj4gPh6-45" vertex="1">
          <mxGeometry x="151" y="630.0033333333332" width="160" height="130" as="geometry" />
        </mxCell>
        <mxCell id="qxFu92Zqag-RyQj4gPh6-91" value="1.5" style="text;html=1;strokeColor=none;fillColor=none;align=center;verticalAlign=middle;whiteSpace=wrap;rounded=0;connectable=0;allowArrows=0;editable=1;movable=0;resizable=0;rotatable=0;deletable=0;locked=0;cloneable=0;" parent="qxFu92Zqag-RyQj4gPh6-90" vertex="1">
          <mxGeometry width="35" height="30" as="geometry" />
        </mxCell>
        <mxCell id="qxFu92Zqag-RyQj4gPh6-92" value="" style="text;strokeColor=none;fillColor=none;align=left;verticalAlign=middle;whiteSpace=wrap;rounded=0;autosize=1;connectable=0;allowArrows=0;movable=0;resizable=0;rotatable=0;deletable=0;cloneable=0;spacingLeft=6;fontStyle=0;html=1;" parent="qxFu92Zqag-RyQj4gPh6-90" vertex="1">
          <mxGeometry x="35" y="-5" width="50" height="40" as="geometry" />
        </mxCell>
        <mxCell id="kGLBAf9Bka_uWVPkO2jP-1" value="Belépés" style="html=1;dashed=0;whitespace=wrap;shape=mxgraph.dfd.process2;align=center;container=1;collapsible=0;spacingTop=30;" parent="qxFu92Zqag-RyQj4gPh6-45" vertex="1">
          <mxGeometry x="151" y="189.99666666666667" width="160" height="130" as="geometry" />
        </mxCell>
        <mxCell id="kGLBAf9Bka_uWVPkO2jP-2" value="1.2" style="text;html=1;strokeColor=none;fillColor=none;align=center;verticalAlign=middle;whiteSpace=wrap;rounded=0;connectable=0;allowArrows=0;editable=1;movable=0;resizable=0;rotatable=0;deletable=0;locked=0;cloneable=0;" parent="kGLBAf9Bka_uWVPkO2jP-1" vertex="1">
          <mxGeometry width="35" height="30" as="geometry" />
        </mxCell>
        <mxCell id="kGLBAf9Bka_uWVPkO2jP-3" value="" style="text;strokeColor=none;fillColor=none;align=left;verticalAlign=middle;whiteSpace=wrap;rounded=0;autosize=1;connectable=0;allowArrows=0;movable=0;resizable=0;rotatable=0;deletable=0;cloneable=0;spacingLeft=6;fontStyle=0;html=1;" parent="kGLBAf9Bka_uWVPkO2jP-1" vertex="1">
          <mxGeometry x="35" y="-5" width="50" height="40" as="geometry" />
        </mxCell>
        <mxCell id="qxFu92Zqag-RyQj4gPh6-51" value="Vendég" style="ellipse;whiteSpace=wrap;html=1;" parent="1" vertex="1">
          <mxGeometry x="240" y="255" width="120" height="80" as="geometry" />
        </mxCell>
        <mxCell id="qxFu92Zqag-RyQj4gPh6-52" value="adatok" style="endArrow=classic;html=1;rounded=0;verticalAlign=bottom;exitX=1;exitY=0.5;exitDx=0;exitDy=0;" parent="1" source="qxFu92Zqag-RyQj4gPh6-51" edge="1">
          <mxGeometry width="50" height="50" relative="1" as="geometry">
            <mxPoint x="180" y="500" as="sourcePoint" />
            <mxPoint x="570" y="295" as="targetPoint" />
          </mxGeometry>
        </mxCell>
        <mxCell id="qxFu92Zqag-RyQj4gPh6-53" value="felhasználók adatai" style="html=1;dashed=0;whitespace=wrap;shape=mxgraph.dfd.dataStoreID;align=left;spacingLeft=33;container=1;collapsible=0;autosize=0;" parent="1" vertex="1">
          <mxGeometry x="940" y="305" width="140" height="30" as="geometry" />
        </mxCell>
        <mxCell id="qxFu92Zqag-RyQj4gPh6-54" value="D1" style="text;html=1;strokeColor=none;fillColor=none;align=center;verticalAlign=middle;whiteSpace=wrap;rounded=0;movable=0;resizable=0;rotatable=0;cloneable=0;deletable=0;allowArrows=0;connectable=0;" parent="qxFu92Zqag-RyQj4gPh6-53" vertex="1">
          <mxGeometry width="30" height="30" as="geometry" />
        </mxCell>
        <mxCell id="qxFu92Zqag-RyQj4gPh6-55" value="adatok" style="endArrow=classic;html=1;rounded=0;verticalAlign=bottom;entryX=-0.019;entryY=0.502;entryDx=0;entryDy=0;entryPerimeter=0;exitX=1.006;exitY=0.659;exitDx=0;exitDy=0;exitPerimeter=0;" parent="1" source="qxFu92Zqag-RyQj4gPh6-48" target="qxFu92Zqag-RyQj4gPh6-53" edge="1">
          <mxGeometry width="50" height="50" relative="1" as="geometry">
            <mxPoint x="180" y="500" as="sourcePoint" />
            <mxPoint x="300" y="500" as="targetPoint" />
          </mxGeometry>
        </mxCell>
        <mxCell id="qxFu92Zqag-RyQj4gPh6-59" value="Felhasználó" style="ellipse;whiteSpace=wrap;html=1;" parent="1" vertex="1">
          <mxGeometry x="240" y="540" width="120" height="80" as="geometry" />
        </mxCell>
        <mxCell id="qxFu92Zqag-RyQj4gPh6-60" value="utazási, számlázási adatok" style="endArrow=classic;html=1;rounded=0;verticalAlign=bottom;entryX=0;entryY=0.362;entryDx=0;entryDy=0;entryPerimeter=0;" parent="1" target="qxFu92Zqag-RyQj4gPh6-79" edge="1">
          <mxGeometry width="50" height="50" relative="1" as="geometry">
            <mxPoint x="360" y="567" as="sourcePoint" />
            <mxPoint x="570" y="490" as="targetPoint" />
          </mxGeometry>
        </mxCell>
        <mxCell id="qxFu92Zqag-RyQj4gPh6-61" value="utazások" style="html=1;dashed=0;whitespace=wrap;shape=mxgraph.dfd.dataStoreID;align=left;spacingLeft=33;container=1;collapsible=0;autosize=0;" parent="1" vertex="1">
          <mxGeometry x="940" y="500" width="140" height="30" as="geometry" />
        </mxCell>
        <mxCell id="qxFu92Zqag-RyQj4gPh6-62" value="D5" style="text;html=1;strokeColor=none;fillColor=none;align=center;verticalAlign=middle;whiteSpace=wrap;rounded=0;movable=0;resizable=0;rotatable=0;cloneable=0;deletable=0;allowArrows=0;connectable=0;" parent="qxFu92Zqag-RyQj4gPh6-61" vertex="1">
          <mxGeometry width="30" height="30" as="geometry" />
        </mxCell>
        <mxCell id="qxFu92Zqag-RyQj4gPh6-63" value="repülőjegy (és biztosítás)" style="shape=flexArrow;endArrow=classic;html=1;rounded=0;width=20;startWidth=0;endWidth=0;entryX=0.983;entryY=0.688;entryDx=0;entryDy=0;entryPerimeter=0;" parent="1" target="qxFu92Zqag-RyQj4gPh6-59" edge="1">
          <mxGeometry x="0.0506" y="1" width="50" height="50" relative="1" as="geometry">
            <mxPoint x="570" y="595" as="sourcePoint" />
            <mxPoint x="-510" y="385" as="targetPoint" />
            <mxPoint x="1" as="offset" />
            <Array as="points" />
          </mxGeometry>
        </mxCell>
        <mxCell id="qxFu92Zqag-RyQj4gPh6-67" value="utazási információk" style="endArrow=classic;startArrow=classic;html=1;rounded=0;verticalAlign=bottom;entryX=-0.011;entryY=0.547;entryDx=0;entryDy=0;entryPerimeter=0;exitX=1;exitY=0.462;exitDx=0;exitDy=0;exitPerimeter=0;" parent="1" source="qxFu92Zqag-RyQj4gPh6-82" target="qxFu92Zqag-RyQj4gPh6-69" edge="1">
          <mxGeometry x="-0.5827" width="50" height="50" relative="1" as="geometry">
            <mxPoint x="733.5599999999995" y="589.5200000000002" as="sourcePoint" />
            <mxPoint x="300" y="500" as="targetPoint" />
            <Array as="points">
              <mxPoint x="880" y="730" />
              <mxPoint x="880" y="426" />
            </Array>
            <mxPoint as="offset" />
          </mxGeometry>
        </mxCell>
        <mxCell id="qxFu92Zqag-RyQj4gPh6-68" value="utazási információk" style="endArrow=classic;startArrow=classic;html=1;rounded=0;verticalAlign=bottom;entryX=0;entryY=0.308;entryDx=0;entryDy=0;entryPerimeter=0;exitX=0.643;exitY=1.015;exitDx=0;exitDy=0;exitPerimeter=0;" parent="1" source="qxFu92Zqag-RyQj4gPh6-59" target="qxFu92Zqag-RyQj4gPh6-82" edge="1">
          <mxGeometry width="50" height="50" relative="1" as="geometry">
            <mxPoint x="180" y="500" as="sourcePoint" />
            <mxPoint x="570.04" y="593" as="targetPoint" />
            <Array as="points">
              <mxPoint x="317" y="710" />
            </Array>
          </mxGeometry>
        </mxCell>
        <mxCell id="qxFu92Zqag-RyQj4gPh6-69" value="szállodák" style="html=1;dashed=0;whitespace=wrap;shape=mxgraph.dfd.dataStoreID;align=left;spacingLeft=33;container=1;collapsible=0;autosize=0;" parent="1" vertex="1">
          <mxGeometry x="940" y="410" width="140" height="30" as="geometry" />
        </mxCell>
        <mxCell id="qxFu92Zqag-RyQj4gPh6-70" value="D3" style="text;html=1;strokeColor=none;fillColor=none;align=center;verticalAlign=middle;whiteSpace=wrap;rounded=0;movable=0;resizable=0;rotatable=0;cloneable=0;deletable=0;allowArrows=0;connectable=0;" parent="qxFu92Zqag-RyQj4gPh6-69" vertex="1">
          <mxGeometry width="30" height="30" as="geometry" />
        </mxCell>
        <mxCell id="qxFu92Zqag-RyQj4gPh6-71" value="biztosítások" style="html=1;dashed=0;whitespace=wrap;shape=mxgraph.dfd.dataStoreID;align=left;spacingLeft=33;container=1;collapsible=0;autosize=0;" parent="1" vertex="1">
          <mxGeometry x="940" y="455" width="140" height="30" as="geometry" />
        </mxCell>
        <mxCell id="qxFu92Zqag-RyQj4gPh6-72" value="D4" style="text;html=1;strokeColor=none;fillColor=none;align=center;verticalAlign=middle;whiteSpace=wrap;rounded=0;movable=0;resizable=0;rotatable=0;cloneable=0;deletable=0;allowArrows=0;connectable=0;" parent="qxFu92Zqag-RyQj4gPh6-71" vertex="1">
          <mxGeometry width="30" height="30" as="geometry" />
        </mxCell>
        <mxCell id="qxFu92Zqag-RyQj4gPh6-73" value="menetrendek" style="html=1;dashed=0;whitespace=wrap;shape=mxgraph.dfd.dataStoreID;align=left;spacingLeft=33;container=1;collapsible=0;autosize=0;" parent="1" vertex="1">
          <mxGeometry x="940" y="770" width="140" height="30" as="geometry" />
        </mxCell>
        <mxCell id="qxFu92Zqag-RyQj4gPh6-74" value="D6" style="text;html=1;strokeColor=none;fillColor=none;align=center;verticalAlign=middle;whiteSpace=wrap;rounded=0;movable=0;resizable=0;rotatable=0;cloneable=0;deletable=0;allowArrows=0;connectable=0;" parent="qxFu92Zqag-RyQj4gPh6-73" vertex="1">
          <mxGeometry width="30" height="30" as="geometry" />
        </mxCell>
        <mxCell id="qxFu92Zqag-RyQj4gPh6-75" value="Adminisztrátor" style="ellipse;whiteSpace=wrap;html=1;" parent="1" vertex="1">
          <mxGeometry x="240" y="770" width="120" height="80" as="geometry" />
        </mxCell>
        <mxCell id="qxFu92Zqag-RyQj4gPh6-85" value="mit mire" style="endArrow=classic;html=1;rounded=0;verticalAlign=bottom;exitX=0.5;exitY=1;exitDx=0;exitDy=0;entryX=-0.012;entryY=0.323;entryDx=0;entryDy=0;entryPerimeter=0;" parent="1" source="qxFu92Zqag-RyQj4gPh6-75" target="qxFu92Zqag-RyQj4gPh6-90" edge="1">
          <mxGeometry width="50" height="50" relative="1" as="geometry">
            <mxPoint x="330" y="490" as="sourcePoint" />
            <mxPoint x="570.04" y="750.04" as="targetPoint" />
            <Array as="points">
              <mxPoint x="300" y="862" />
            </Array>
          </mxGeometry>
        </mxCell>
        <mxCell id="qxFu92Zqag-RyQj4gPh6-86" value="menetrend módosítás" style="endArrow=classic;html=1;rounded=0;verticalAlign=bottom;entryX=0.579;entryY=1.167;entryDx=0;entryDy=0;entryPerimeter=0;exitX=1.006;exitY=0.154;exitDx=0;exitDy=0;exitPerimeter=0;" parent="1" source="qxFu92Zqag-RyQj4gPh6-90" target="qxFu92Zqag-RyQj4gPh6-73" edge="1">
          <mxGeometry x="0.0609" y="-10" width="50" height="50" relative="1" as="geometry">
            <mxPoint x="732.44" y="720.4000000000001" as="sourcePoint" />
            <mxPoint x="580" y="600" as="targetPoint" />
            <Array as="points">
              <mxPoint x="1021" y="840" />
            </Array>
            <mxPoint as="offset" />
          </mxGeometry>
        </mxCell>
        <mxCell id="qxFu92Zqag-RyQj4gPh6-87" value="utazás módosítás" style="endArrow=classic;html=1;rounded=0;verticalAlign=bottom;exitX=0.994;exitY=0.3;exitDx=0;exitDy=0;exitPerimeter=0;" parent="1" source="qxFu92Zqag-RyQj4gPh6-90" edge="1">
          <mxGeometry x="-0.6801" y="-1" width="50" height="50" relative="1" as="geometry">
            <mxPoint x="735" y="736.96" as="sourcePoint" />
            <mxPoint x="1080" y="520" as="targetPoint" />
            <Array as="points">
              <mxPoint x="1110" y="860" />
              <mxPoint x="1110" y="520" />
            </Array>
            <mxPoint as="offset" />
          </mxGeometry>
        </mxCell>
        <mxCell id="qxFu92Zqag-RyQj4gPh6-88" value="biztosítás módosítás&lt;br&gt;" style="endArrow=classic;html=1;rounded=0;verticalAlign=bottom;exitX=1.006;exitY=0.446;exitDx=0;exitDy=0;exitPerimeter=0;" parent="1" source="qxFu92Zqag-RyQj4gPh6-90" target="qxFu92Zqag-RyQj4gPh6-71" edge="1">
          <mxGeometry x="-0.4429" y="-10" width="50" height="50" relative="1" as="geometry">
            <mxPoint x="733.0799999999999" y="751" as="sourcePoint" />
            <mxPoint x="530" y="520" as="targetPoint" />
            <Array as="points">
              <mxPoint x="1120" y="880" />
              <mxPoint x="1120" y="470" />
            </Array>
            <mxPoint as="offset" />
          </mxGeometry>
        </mxCell>
        <mxCell id="qxFu92Zqag-RyQj4gPh6-89" value="szálláshely módosítás" style="endArrow=classic;html=1;rounded=0;verticalAlign=bottom;exitX=1.006;exitY=0.6;exitDx=0;exitDy=0;exitPerimeter=0;" parent="1" source="qxFu92Zqag-RyQj4gPh6-90" target="qxFu92Zqag-RyQj4gPh6-69" edge="1">
          <mxGeometry x="-0.6576" y="-1" width="50" height="50" relative="1" as="geometry">
            <mxPoint x="731.1599999999999" y="767.0799999999999" as="sourcePoint" />
            <mxPoint x="650" y="530" as="targetPoint" />
            <Array as="points">
              <mxPoint x="1130" y="900" />
              <mxPoint x="1130" y="425" />
            </Array>
            <mxPoint as="offset" />
          </mxGeometry>
        </mxCell>
        <mxCell id="qxFu92Zqag-RyQj4gPh6-93" value="menetrend infók" style="endArrow=classic;startArrow=classic;html=1;rounded=0;verticalAlign=bottom;entryX=-0.014;entryY=0.5;entryDx=0;entryDy=0;entryPerimeter=0;exitX=1.021;exitY=0.873;exitDx=0;exitDy=0;exitPerimeter=0;" parent="1" source="qxFu92Zqag-RyQj4gPh6-82" target="qxFu92Zqag-RyQj4gPh6-73" edge="1">
          <mxGeometry width="50" height="50" relative="1" as="geometry">
            <mxPoint x="740" y="630" as="sourcePoint" />
            <mxPoint x="730" y="490" as="targetPoint" />
            <Array as="points">
              <mxPoint x="850" y="783" />
            </Array>
          </mxGeometry>
        </mxCell>
        <mxCell id="qxFu92Zqag-RyQj4gPh6-94" value="érintett változásokról értesítés" style="endArrow=classic;html=1;rounded=0;verticalAlign=bottom;entryX=0.358;entryY=1;entryDx=0;entryDy=0;entryPerimeter=0;exitX=0;exitY=0.6;exitDx=0;exitDy=0;exitPerimeter=0;" parent="1" source="qxFu92Zqag-RyQj4gPh6-82" target="qxFu92Zqag-RyQj4gPh6-59" edge="1">
          <mxGeometry x="-0.2453" width="50" height="50" relative="1" as="geometry">
            <mxPoint x="570" y="690" as="sourcePoint" />
            <mxPoint x="710" y="540" as="targetPoint" />
            <Array as="points">
              <mxPoint x="283" y="750" />
            </Array>
            <mxPoint as="offset" />
          </mxGeometry>
        </mxCell>
        <mxCell id="qxFu92Zqag-RyQj4gPh6-95" value="profil módosítás vagy törlés" style="endArrow=classic;html=1;rounded=0;verticalAlign=bottom;exitX=-0.002;exitY=0.627;exitDx=0;exitDy=0;exitPerimeter=0;" parent="1" source="qxFu92Zqag-RyQj4gPh6-59" edge="1">
          <mxGeometry x="0.5026" width="50" height="50" relative="1" as="geometry">
            <mxPoint x="600" y="540" as="sourcePoint" />
            <mxPoint x="570" y="890" as="targetPoint" />
            <Array as="points">
              <mxPoint x="220" y="590" />
              <mxPoint x="220" y="890" />
              <mxPoint x="390" y="890" />
            </Array>
            <mxPoint as="offset" />
          </mxGeometry>
        </mxCell>
        <mxCell id="qxFu92Zqag-RyQj4gPh6-96" value="profil módosítása vagy törlése" style="endArrow=classic;html=1;rounded=0;verticalAlign=bottom;exitX=1;exitY=0.892;exitDx=0;exitDy=0;exitPerimeter=0;" parent="1" source="qxFu92Zqag-RyQj4gPh6-90" target="qxFu92Zqag-RyQj4gPh6-53" edge="1">
          <mxGeometry x="-0.5" width="50" height="50" relative="1" as="geometry">
            <mxPoint x="700" y="620" as="sourcePoint" />
            <mxPoint x="820" y="620" as="targetPoint" />
            <Array as="points">
              <mxPoint x="1170" y="936" />
              <mxPoint x="1170" y="320" />
            </Array>
            <mxPoint as="offset" />
          </mxGeometry>
        </mxCell>
        <mxCell id="qxFu92Zqag-RyQj4gPh6-97" value="" style="endArrow=classic;html=1;rounded=0;verticalAlign=bottom;entryX=0;entryY=0.5;entryDx=0;entryDy=0;entryPerimeter=0;" parent="1" target="qxFu92Zqag-RyQj4gPh6-71" edge="1">
          <mxGeometry width="50" height="50" relative="1" as="geometry">
            <mxPoint x="880" y="470" as="sourcePoint" />
            <mxPoint x="880" y="480" as="targetPoint" />
          </mxGeometry>
        </mxCell>
        <mxCell id="qxFu92Zqag-RyQj4gPh6-98" value="" style="endArrow=classic;html=1;rounded=0;verticalAlign=bottom;entryX=0;entryY=0.667;entryDx=0;entryDy=0;entryPerimeter=0;" parent="1" target="qxFu92Zqag-RyQj4gPh6-61" edge="1">
          <mxGeometry width="50" height="50" relative="1" as="geometry">
            <mxPoint x="880" y="520" as="sourcePoint" />
            <mxPoint x="880" y="480" as="targetPoint" />
          </mxGeometry>
        </mxCell>
        <mxCell id="BjvCptCrzlsLT6p_SCIJ-1" value="jegyek" style="html=1;dashed=0;whitespace=wrap;shape=mxgraph.dfd.dataStoreID;align=left;spacingLeft=33;container=1;collapsible=0;autosize=0;" parent="1" vertex="1">
          <mxGeometry x="940" y="360" width="140" height="30" as="geometry" />
        </mxCell>
        <mxCell id="BjvCptCrzlsLT6p_SCIJ-2" value="D2" style="text;html=1;strokeColor=none;fillColor=none;align=center;verticalAlign=middle;whiteSpace=wrap;rounded=0;movable=0;resizable=0;rotatable=0;cloneable=0;deletable=0;allowArrows=0;connectable=0;" parent="BjvCptCrzlsLT6p_SCIJ-1" vertex="1">
          <mxGeometry width="30" height="30" as="geometry" />
        </mxCell>
        <mxCell id="BjvCptCrzlsLT6p_SCIJ-3" value="jegy törlése vagy módosítása" style="endArrow=classic;html=1;rounded=0;verticalAlign=bottom;exitX=0.994;exitY=0.762;exitDx=0;exitDy=0;exitPerimeter=0;" parent="1" source="qxFu92Zqag-RyQj4gPh6-90" target="BjvCptCrzlsLT6p_SCIJ-1" edge="1">
          <mxGeometry x="-0.3866" width="50" height="50" relative="1" as="geometry">
            <mxPoint x="730" y="890" as="sourcePoint" />
            <mxPoint x="840" y="540" as="targetPoint" />
            <Array as="points">
              <mxPoint x="870" y="920" />
              <mxPoint x="1150" y="920" />
              <mxPoint x="1150" y="375" />
            </Array>
            <mxPoint as="offset" />
          </mxGeometry>
        </mxCell>
        <mxCell id="BjvCptCrzlsLT6p_SCIJ-4" value="jegy módosítás vagy lemondás" style="endArrow=classic;html=1;rounded=0;verticalAlign=bottom;exitX=0;exitY=0.5;exitDx=0;exitDy=0;entryX=-0.025;entryY=0.9;entryDx=0;entryDy=0;entryPerimeter=0;" parent="1" source="qxFu92Zqag-RyQj4gPh6-59" target="qxFu92Zqag-RyQj4gPh6-90" edge="1">
          <mxGeometry x="0.4207" y="9" width="50" height="50" relative="1" as="geometry">
            <mxPoint x="730" y="550" as="sourcePoint" />
            <mxPoint x="620" y="850" as="targetPoint" />
            <Array as="points">
              <mxPoint x="200" y="580" />
              <mxPoint x="200" y="940" />
              <mxPoint x="460" y="937" />
            </Array>
            <mxPoint as="offset" />
          </mxGeometry>
        </mxCell>
        <mxCell id="kGLBAf9Bka_uWVPkO2jP-4" value="&lt;font style=&quot;font-size: 12px;&quot;&gt;azonosító&lt;/font&gt;" style="endArrow=classic;html=1;rounded=0;verticalAlign=bottom;fontSize=8;entryX=-0.025;entryY=0.169;entryDx=0;entryDy=0;entryPerimeter=0;exitX=0.075;exitY=0.225;exitDx=0;exitDy=0;exitPerimeter=0;" parent="1" source="qxFu92Zqag-RyQj4gPh6-59" target="kGLBAf9Bka_uWVPkO2jP-1" edge="1">
          <mxGeometry width="50" height="50" relative="1" as="geometry">
            <mxPoint x="680" y="540" as="sourcePoint" />
            <mxPoint x="800" y="540" as="targetPoint" />
            <Array as="points">
              <mxPoint x="250" y="402" />
            </Array>
          </mxGeometry>
        </mxCell>
        <mxCell id="qiSXaB6oiJ-0l5NYBUWA-1" value="OTP egyszer használatos jelszó" style="shape=flexArrow;endArrow=classic;html=1;rounded=0;width=20;startWidth=0;endWidth=0;fontSize=12;exitX=0;exitY=0.631;exitDx=0;exitDy=0;exitPerimeter=0;entryX=0.5;entryY=0;entryDx=0;entryDy=0;" parent="1" source="kGLBAf9Bka_uWVPkO2jP-1" target="qxFu92Zqag-RyQj4gPh6-59" edge="1">
          <mxGeometry width="50" height="50" relative="1" as="geometry">
            <mxPoint x="680" y="540" as="sourcePoint" />
            <mxPoint x="800" y="540" as="targetPoint" />
            <Array as="points">
              <mxPoint x="300" y="462" />
            </Array>
          </mxGeometry>
        </mxCell>
        <mxCell id="W5pUR3dZbSnOJC4TUWE1-1" value="azonosító ellenőrzése" style="endArrow=classic;html=1;rounded=0;verticalAlign=bottom;fontSize=12;exitX=1;exitY=0.431;exitDx=0;exitDy=0;exitPerimeter=0;entryX=0;entryY=0.733;entryDx=0;entryDy=0;entryPerimeter=0;" parent="1" source="kGLBAf9Bka_uWVPkO2jP-1" target="qxFu92Zqag-RyQj4gPh6-53" edge="1">
          <mxGeometry width="50" height="50" relative="1" as="geometry">
            <mxPoint x="680" y="600" as="sourcePoint" />
            <mxPoint x="800" y="600" as="targetPoint" />
            <Array as="points">
              <mxPoint x="830" y="436" />
              <mxPoint x="830" y="328" />
            </Array>
          </mxGeometry>
        </mxCell>
      </root>
    </mxGraphModel>
  </diagram>
  <diagram id="sVKaL8u0E4vggzvucij5" name="1. szintű logikai AFD">
    <mxGraphModel dx="1434" dy="774" grid="1" gridSize="10" guides="1" tooltips="1" connect="1" arrows="1" fold="1" page="1" pageScale="1" pageWidth="827" pageHeight="1169" math="0" shadow="0">
      <root>
        <mxCell id="0" />
        <mxCell id="1" parent="0" />
        <mxCell id="__FQm1dWa5RZJD3Dozvy-1" value="Repülőjegy ügyintézés" style="html=1;dashed=0;whitespace=wrap;shape=mxgraph.dfd.process;align=center;container=1;collapsible=0;spacingTop=30;" parent="1" vertex="1">
          <mxGeometry x="570" y="180" width="160" height="120" as="geometry" />
        </mxCell>
        <mxCell id="__FQm1dWa5RZJD3Dozvy-2" value="1." style="text;html=1;strokeColor=none;fillColor=none;align=center;verticalAlign=middle;whiteSpace=wrap;rounded=0;movable=0;resizable=0;rotatable=0;cloneable=0;deletable=0;connectable=0;allowArrows=0;pointerEvents=1;" parent="__FQm1dWa5RZJD3Dozvy-1" vertex="1">
          <mxGeometry width="35" height="30" as="geometry" />
        </mxCell>
        <mxCell id="__FQm1dWa5RZJD3Dozvy-3" value="" style="text;html=1;strokeColor=none;fillColor=none;align=left;verticalAlign=middle;whiteSpace=wrap;rounded=0;movable=0;resizable=0;connectable=0;allowArrows=0;rotatable=0;cloneable=0;deletable=0;spacingLeft=6;autosize=1;resizeWidth=0;" parent="__FQm1dWa5RZJD3Dozvy-1" vertex="1">
          <mxGeometry x="35" y="-5" width="50" height="40" as="geometry" />
        </mxCell>
        <mxCell id="__FQm1dWa5RZJD3Dozvy-4" value="Felhasználó" style="ellipse;whiteSpace=wrap;html=1;" parent="1" vertex="1">
          <mxGeometry x="350" y="370" width="120" height="80" as="geometry" />
        </mxCell>
        <mxCell id="__FQm1dWa5RZJD3Dozvy-5" value="személyes adatok&lt;br&gt;vásárlás részletei" style="endArrow=classic;html=1;rounded=0;verticalAlign=bottom;exitX=0;exitY=0;exitDx=0;exitDy=0;" parent="1" source="__FQm1dWa5RZJD3Dozvy-4" edge="1">
          <mxGeometry x="0.462" y="2" width="50" height="50" relative="1" as="geometry">
            <mxPoint x="390" y="240" as="sourcePoint" />
            <mxPoint x="570" y="212" as="targetPoint" />
            <Array as="points">
              <mxPoint x="368" y="212" />
            </Array>
            <mxPoint as="offset" />
          </mxGeometry>
        </mxCell>
        <mxCell id="__FQm1dWa5RZJD3Dozvy-6" value="repülőjegy (és biztosítás)" style="shape=flexArrow;endArrow=classic;html=1;rounded=0;width=20;startWidth=0;endWidth=0;entryX=0.753;entryY=0.067;entryDx=0;entryDy=0;entryPerimeter=0;exitX=0;exitY=0.745;exitDx=0;exitDy=0;exitPerimeter=0;" parent="1" source="__FQm1dWa5RZJD3Dozvy-1" target="__FQm1dWa5RZJD3Dozvy-4" edge="1">
          <mxGeometry x="-0.4053" y="-1" width="50" height="50" relative="1" as="geometry">
            <mxPoint x="570" y="268" as="sourcePoint" />
            <mxPoint x="440" y="330" as="targetPoint" />
            <mxPoint as="offset" />
            <Array as="points">
              <mxPoint x="440" y="270" />
            </Array>
          </mxGeometry>
        </mxCell>
        <mxCell id="__FQm1dWa5RZJD3Dozvy-7" value="Információk kérése" style="html=1;dashed=0;whitespace=wrap;shape=mxgraph.dfd.process;align=center;container=1;collapsible=0;spacingTop=30;" parent="1" vertex="1">
          <mxGeometry x="630" y="410" width="160" height="120" as="geometry" />
        </mxCell>
        <mxCell id="__FQm1dWa5RZJD3Dozvy-8" value="2." style="text;html=1;strokeColor=none;fillColor=none;align=center;verticalAlign=middle;whiteSpace=wrap;rounded=0;movable=0;resizable=0;rotatable=0;cloneable=0;deletable=0;connectable=0;allowArrows=0;pointerEvents=1;" parent="__FQm1dWa5RZJD3Dozvy-7" vertex="1">
          <mxGeometry width="35" height="30" as="geometry" />
        </mxCell>
        <mxCell id="__FQm1dWa5RZJD3Dozvy-9" value="" style="text;html=1;strokeColor=none;fillColor=none;align=left;verticalAlign=middle;whiteSpace=wrap;rounded=0;movable=0;resizable=0;connectable=0;allowArrows=0;rotatable=0;cloneable=0;deletable=0;spacingLeft=6;autosize=1;resizeWidth=0;" parent="__FQm1dWa5RZJD3Dozvy-7" vertex="1">
          <mxGeometry x="35" y="-5" width="50" height="40" as="geometry" />
        </mxCell>
        <mxCell id="__FQm1dWa5RZJD3Dozvy-10" value="Honnan, hova,&lt;br&gt;mikor, melyik légitársasággal,&lt;br&gt;mennyiért stb" style="endArrow=classic;html=1;rounded=0;verticalAlign=bottom;entryX=0;entryY=0.25;entryDx=0;entryDy=0;entryPerimeter=0;" parent="1" target="__FQm1dWa5RZJD3Dozvy-7" edge="1">
          <mxGeometry x="0.1111" width="50" height="50" relative="1" as="geometry">
            <mxPoint x="450" y="440" as="sourcePoint" />
            <mxPoint x="412" y="420" as="targetPoint" />
            <mxPoint as="offset" />
          </mxGeometry>
        </mxCell>
        <mxCell id="__FQm1dWa5RZJD3Dozvy-11" value="lehetőségek" style="endArrow=classic;html=1;rounded=0;verticalAlign=bottom;exitX=0;exitY=0.833;exitDx=0;exitDy=0;exitPerimeter=0;entryX=0.5;entryY=1;entryDx=0;entryDy=0;" parent="1" source="__FQm1dWa5RZJD3Dozvy-7" target="__FQm1dWa5RZJD3Dozvy-4" edge="1">
          <mxGeometry x="-0.2143" width="50" height="50" relative="1" as="geometry">
            <mxPoint x="590" y="480" as="sourcePoint" />
            <mxPoint x="370" y="510" as="targetPoint" />
            <mxPoint as="offset" />
            <Array as="points">
              <mxPoint x="410" y="510" />
            </Array>
          </mxGeometry>
        </mxCell>
        <mxCell id="__FQm1dWa5RZJD3Dozvy-12" value="felhasználó adatai, kedvezményei" style="endArrow=classic;startArrow=classic;html=1;rounded=0;verticalAlign=bottom;exitX=1;exitY=0.292;exitDx=0;exitDy=0;exitPerimeter=0;entryX=-0.007;entryY=0.5;entryDx=0;entryDy=0;entryPerimeter=0;" parent="1" source="__FQm1dWa5RZJD3Dozvy-1" edge="1">
          <mxGeometry width="50" height="50" relative="1" as="geometry">
            <mxPoint x="580" y="440" as="sourcePoint" />
            <mxPoint x="968.95" y="215" as="targetPoint" />
          </mxGeometry>
        </mxCell>
        <mxCell id="__FQm1dWa5RZJD3Dozvy-13" value="felhasználó jegyei" style="endArrow=classic;startArrow=classic;html=1;rounded=0;verticalAlign=bottom;entryX=-0.02;entryY=0.533;entryDx=0;entryDy=0;entryPerimeter=0;exitX=1.006;exitY=0.806;exitDx=0;exitDy=0;exitPerimeter=0;" parent="1" source="__FQm1dWa5RZJD3Dozvy-1" edge="1">
          <mxGeometry width="50" height="50" relative="1" as="geometry">
            <mxPoint x="790" y="280" as="sourcePoint" />
            <mxPoint x="967" y="275.99" as="targetPoint" />
          </mxGeometry>
        </mxCell>
        <mxCell id="__FQm1dWa5RZJD3Dozvy-14" value="felhasználók adatai" style="html=1;dashed=0;whitespace=wrap;shape=mxgraph.dfd.dataStoreID;align=left;spacingLeft=33;container=1;collapsible=0;autosize=0;" parent="1" vertex="1">
          <mxGeometry x="970" y="200" width="150" height="30" as="geometry" />
        </mxCell>
        <mxCell id="__FQm1dWa5RZJD3Dozvy-15" value="D1" style="text;html=1;strokeColor=none;fillColor=none;align=center;verticalAlign=middle;whiteSpace=wrap;rounded=0;movable=0;resizable=0;rotatable=0;cloneable=0;deletable=0;allowArrows=0;connectable=0;" parent="__FQm1dWa5RZJD3Dozvy-14" vertex="1">
          <mxGeometry width="30" height="30" as="geometry" />
        </mxCell>
        <mxCell id="__FQm1dWa5RZJD3Dozvy-16" value="jegyek" style="html=1;dashed=0;whitespace=wrap;shape=mxgraph.dfd.dataStoreID;align=left;spacingLeft=33;container=1;collapsible=0;autosize=0;" parent="1" vertex="1">
          <mxGeometry x="970" y="260" width="150" height="30" as="geometry" />
        </mxCell>
        <mxCell id="__FQm1dWa5RZJD3Dozvy-17" value="D2" style="text;html=1;strokeColor=none;fillColor=none;align=center;verticalAlign=middle;whiteSpace=wrap;rounded=0;movable=0;resizable=0;rotatable=0;cloneable=0;deletable=0;allowArrows=0;connectable=0;" parent="__FQm1dWa5RZJD3Dozvy-16" vertex="1">
          <mxGeometry width="30" height="30" as="geometry" />
        </mxCell>
        <mxCell id="__FQm1dWa5RZJD3Dozvy-18" value="utazások" style="html=1;dashed=0;whitespace=wrap;shape=mxgraph.dfd.dataStoreID;align=left;spacingLeft=33;container=1;collapsible=0;autosize=0;" parent="1" vertex="1">
          <mxGeometry x="970" y="500" width="140" height="30" as="geometry" />
        </mxCell>
        <mxCell id="__FQm1dWa5RZJD3Dozvy-19" value="D5" style="text;html=1;strokeColor=none;fillColor=none;align=center;verticalAlign=middle;whiteSpace=wrap;rounded=0;movable=0;resizable=0;rotatable=0;cloneable=0;deletable=0;allowArrows=0;connectable=0;" parent="__FQm1dWa5RZJD3Dozvy-18" vertex="1">
          <mxGeometry width="30" height="30" as="geometry" />
        </mxCell>
        <mxCell id="__FQm1dWa5RZJD3Dozvy-20" value="feltételeknek megfelelő lehetőségek" style="endArrow=classic;startArrow=classic;html=1;rounded=0;verticalAlign=bottom;entryX=0;entryY=0.532;entryDx=0;entryDy=0;entryPerimeter=0;exitX=1;exitY=0.883;exitDx=0;exitDy=0;exitPerimeter=0;" parent="1" source="__FQm1dWa5RZJD3Dozvy-7" target="__FQm1dWa5RZJD3Dozvy-18" edge="1">
          <mxGeometry x="0.0381" y="1" width="50" height="50" relative="1" as="geometry">
            <mxPoint x="440" y="420" as="sourcePoint" />
            <mxPoint x="560" y="420" as="targetPoint" />
            <mxPoint as="offset" />
          </mxGeometry>
        </mxCell>
        <mxCell id="__FQm1dWa5RZJD3Dozvy-21" value="Adminisztrátor" style="ellipse;whiteSpace=wrap;html=1;" parent="1" vertex="1">
          <mxGeometry x="350" y="650" width="120" height="80" as="geometry" />
        </mxCell>
        <mxCell id="__FQm1dWa5RZJD3Dozvy-22" value="Változtatások" style="html=1;dashed=0;whitespace=wrap;shape=mxgraph.dfd.process;align=center;container=1;collapsible=0;spacingTop=30;" parent="1" vertex="1">
          <mxGeometry x="630" y="630" width="160" height="120" as="geometry" />
        </mxCell>
        <mxCell id="__FQm1dWa5RZJD3Dozvy-23" value="3." style="text;html=1;strokeColor=none;fillColor=none;align=center;verticalAlign=middle;whiteSpace=wrap;rounded=0;movable=0;resizable=0;rotatable=0;cloneable=0;deletable=0;connectable=0;allowArrows=0;pointerEvents=1;" parent="__FQm1dWa5RZJD3Dozvy-22" vertex="1">
          <mxGeometry width="35" height="30" as="geometry" />
        </mxCell>
        <mxCell id="__FQm1dWa5RZJD3Dozvy-24" value="" style="text;html=1;strokeColor=none;fillColor=none;align=left;verticalAlign=middle;whiteSpace=wrap;rounded=0;movable=0;resizable=0;connectable=0;allowArrows=0;rotatable=0;cloneable=0;deletable=0;spacingLeft=6;autosize=1;resizeWidth=0;" parent="__FQm1dWa5RZJD3Dozvy-22" vertex="1">
          <mxGeometry x="35" y="-5" width="50" height="40" as="geometry" />
        </mxCell>
        <mxCell id="__FQm1dWa5RZJD3Dozvy-25" value="új járat, járatváltozás, árváltozás, járat törlés" style="endArrow=classic;html=1;rounded=0;verticalAlign=bottom;" parent="1" source="__FQm1dWa5RZJD3Dozvy-22" edge="1">
          <mxGeometry x="-0.4397" y="10" width="50" height="50" relative="1" as="geometry">
            <mxPoint x="870" y="700" as="sourcePoint" />
            <mxPoint x="1110" y="510" as="targetPoint" />
            <Array as="points">
              <mxPoint x="1160" y="690" />
              <mxPoint x="1160" y="510" />
            </Array>
            <mxPoint as="offset" />
          </mxGeometry>
        </mxCell>
        <mxCell id="__FQm1dWa5RZJD3Dozvy-26" value="mit mire" style="endArrow=classic;html=1;rounded=0;verticalAlign=bottom;exitX=1;exitY=0.5;exitDx=0;exitDy=0;" parent="1" source="__FQm1dWa5RZJD3Dozvy-21" edge="1">
          <mxGeometry width="50" height="50" relative="1" as="geometry">
            <mxPoint x="610" y="500" as="sourcePoint" />
            <mxPoint x="630" y="690" as="targetPoint" />
          </mxGeometry>
        </mxCell>
        <mxCell id="__FQm1dWa5RZJD3Dozvy-27" value="szállodák" style="html=1;dashed=0;whitespace=wrap;shape=mxgraph.dfd.dataStoreID;align=left;spacingLeft=33;container=1;collapsible=0;autosize=0;" parent="1" vertex="1">
          <mxGeometry x="970" y="410" width="140" height="30" as="geometry" />
        </mxCell>
        <mxCell id="__FQm1dWa5RZJD3Dozvy-28" value="D3" style="text;html=1;strokeColor=none;fillColor=none;align=center;verticalAlign=middle;whiteSpace=wrap;rounded=0;movable=0;resizable=0;rotatable=0;cloneable=0;deletable=0;allowArrows=0;connectable=0;" parent="__FQm1dWa5RZJD3Dozvy-27" vertex="1">
          <mxGeometry width="30" height="30" as="geometry" />
        </mxCell>
        <mxCell id="__FQm1dWa5RZJD3Dozvy-29" value="célhelyen lévő szállodák" style="endArrow=classic;startArrow=classic;html=1;rounded=0;verticalAlign=bottom;exitX=1;exitY=0.117;exitDx=0;exitDy=0;exitPerimeter=0;entryX=0;entryY=0.468;entryDx=0;entryDy=0;entryPerimeter=0;" parent="1" source="__FQm1dWa5RZJD3Dozvy-7" target="__FQm1dWa5RZJD3Dozvy-27" edge="1">
          <mxGeometry width="50" height="50" relative="1" as="geometry">
            <mxPoint x="790" y="500" as="sourcePoint" />
            <mxPoint x="980" y="420" as="targetPoint" />
          </mxGeometry>
        </mxCell>
        <mxCell id="__FQm1dWa5RZJD3Dozvy-30" value="biztosítások" style="html=1;dashed=0;whitespace=wrap;shape=mxgraph.dfd.dataStoreID;align=left;spacingLeft=33;container=1;collapsible=0;autosize=0;" parent="1" vertex="1">
          <mxGeometry x="970" y="455" width="140" height="30" as="geometry" />
        </mxCell>
        <mxCell id="__FQm1dWa5RZJD3Dozvy-31" value="D4" style="text;html=1;strokeColor=none;fillColor=none;align=center;verticalAlign=middle;whiteSpace=wrap;rounded=0;movable=0;resizable=0;rotatable=0;cloneable=0;deletable=0;allowArrows=0;connectable=0;" parent="__FQm1dWa5RZJD3Dozvy-30" vertex="1">
          <mxGeometry width="30" height="30" as="geometry" />
        </mxCell>
        <mxCell id="__FQm1dWa5RZJD3Dozvy-32" value="elérhető utasbiztosítások" style="endArrow=classic;startArrow=classic;html=1;rounded=0;verticalAlign=bottom;" parent="1" source="__FQm1dWa5RZJD3Dozvy-7" target="__FQm1dWa5RZJD3Dozvy-30" edge="1">
          <mxGeometry width="50" height="50" relative="1" as="geometry">
            <mxPoint x="790" y="500" as="sourcePoint" />
            <mxPoint x="910" y="500" as="targetPoint" />
          </mxGeometry>
        </mxCell>
        <mxCell id="__FQm1dWa5RZJD3Dozvy-33" value="új hozzáadása, meglévő változtatása, régi törlése" style="endArrow=classic;html=1;rounded=0;verticalAlign=bottom;exitX=1.002;exitY=0.647;exitDx=0;exitDy=0;exitPerimeter=0;" parent="1" source="__FQm1dWa5RZJD3Dozvy-22" target="__FQm1dWa5RZJD3Dozvy-30" edge="1">
          <mxGeometry x="-0.5153" y="-2" width="50" height="50" relative="1" as="geometry">
            <mxPoint x="790" y="700" as="sourcePoint" />
            <mxPoint x="830" y="500" as="targetPoint" />
            <Array as="points">
              <mxPoint x="1170" y="708" />
              <mxPoint x="1170" y="470" />
            </Array>
            <mxPoint as="offset" />
          </mxGeometry>
        </mxCell>
        <mxCell id="__FQm1dWa5RZJD3Dozvy-34" value="új szálloda felvétele, meglévő módosítása, régi törlése" style="endArrow=classic;html=1;rounded=0;verticalAlign=bottom;exitX=1.005;exitY=0.802;exitDx=0;exitDy=0;exitPerimeter=0;" parent="1" source="__FQm1dWa5RZJD3Dozvy-22" target="__FQm1dWa5RZJD3Dozvy-27" edge="1">
          <mxGeometry x="-0.5912" y="-10" width="50" height="50" relative="1" as="geometry">
            <mxPoint x="720" y="500" as="sourcePoint" />
            <mxPoint x="840" y="500" as="targetPoint" />
            <Array as="points">
              <mxPoint x="1180" y="727" />
              <mxPoint x="1180" y="425" />
            </Array>
            <mxPoint as="offset" />
          </mxGeometry>
        </mxCell>
        <mxCell id="__FQm1dWa5RZJD3Dozvy-35" value="menetrendek" style="html=1;dashed=0;whitespace=wrap;shape=mxgraph.dfd.dataStoreID;align=left;spacingLeft=33;container=1;collapsible=0;autosize=0;" parent="1" vertex="1">
          <mxGeometry x="970" y="550" width="140" height="30" as="geometry" />
        </mxCell>
        <mxCell id="__FQm1dWa5RZJD3Dozvy-36" value="D6" style="text;html=1;strokeColor=none;fillColor=none;align=center;verticalAlign=middle;whiteSpace=wrap;rounded=0;movable=0;resizable=0;rotatable=0;cloneable=0;deletable=0;allowArrows=0;connectable=0;" parent="__FQm1dWa5RZJD3Dozvy-35" vertex="1">
          <mxGeometry width="30" height="30" as="geometry" />
        </mxCell>
        <mxCell id="__FQm1dWa5RZJD3Dozvy-37" value="adott járathoz lekérés" style="endArrow=classic;startArrow=classic;html=1;rounded=0;verticalAlign=bottom;" parent="1" source="__FQm1dWa5RZJD3Dozvy-7" target="__FQm1dWa5RZJD3Dozvy-35" edge="1">
          <mxGeometry x="0.3898" y="5" width="50" height="50" relative="1" as="geometry">
            <mxPoint x="820" y="564.58" as="sourcePoint" />
            <mxPoint x="940" y="564.58" as="targetPoint" />
            <Array as="points">
              <mxPoint x="710" y="565" />
            </Array>
            <mxPoint as="offset" />
          </mxGeometry>
        </mxCell>
        <mxCell id="__FQm1dWa5RZJD3Dozvy-38" value="változás esetén értesítés" style="endArrow=classic;html=1;rounded=0;verticalAlign=bottom;entryX=0.243;entryY=0.957;entryDx=0;entryDy=0;entryPerimeter=0;" parent="1" target="__FQm1dWa5RZJD3Dozvy-4" edge="1">
          <mxGeometry width="50" height="50" relative="1" as="geometry">
            <mxPoint x="1110" y="520" as="sourcePoint" />
            <mxPoint x="910" y="460" as="targetPoint" />
            <Array as="points">
              <mxPoint x="1150" y="520" />
              <mxPoint x="1150" y="610" />
              <mxPoint x="380" y="610" />
            </Array>
          </mxGeometry>
        </mxCell>
        <mxCell id="__FQm1dWa5RZJD3Dozvy-39" value="változás esetén értesítés" style="endArrow=classic;html=1;rounded=0;verticalAlign=bottom;entryX=0.343;entryY=1.006;entryDx=0;entryDy=0;entryPerimeter=0;" parent="1" source="__FQm1dWa5RZJD3Dozvy-35" target="__FQm1dWa5RZJD3Dozvy-4" edge="1">
          <mxGeometry x="-0.0542" width="50" height="50" relative="1" as="geometry">
            <mxPoint x="790" y="460" as="sourcePoint" />
            <mxPoint x="910" y="460" as="targetPoint" />
            <Array as="points">
              <mxPoint x="1140" y="565" />
              <mxPoint x="1140" y="590" />
              <mxPoint x="392" y="590" />
            </Array>
            <mxPoint as="offset" />
          </mxGeometry>
        </mxCell>
        <mxCell id="__FQm1dWa5RZJD3Dozvy-40" value="1. logikai fizikai AFD" style="text;strokeColor=none;fillColor=none;html=1;fontSize=24;fontStyle=1;verticalAlign=middle;align=center;" parent="1" vertex="1">
          <mxGeometry x="430" y="110" width="100" height="40" as="geometry" />
        </mxCell>
        <mxCell id="__FQm1dWa5RZJD3Dozvy-41" value="Belépés" style="html=1;dashed=0;whitespace=wrap;shape=mxgraph.dfd.process;align=center;container=1;collapsible=0;spacingTop=30;" parent="1" vertex="1">
          <mxGeometry x="20" y="350" width="160" height="120" as="geometry" />
        </mxCell>
        <mxCell id="__FQm1dWa5RZJD3Dozvy-42" value="4." style="text;html=1;strokeColor=none;fillColor=none;align=center;verticalAlign=middle;whiteSpace=wrap;rounded=0;movable=0;resizable=0;rotatable=0;cloneable=0;deletable=0;connectable=0;allowArrows=0;pointerEvents=1;" parent="__FQm1dWa5RZJD3Dozvy-41" vertex="1">
          <mxGeometry width="35" height="30" as="geometry" />
        </mxCell>
        <mxCell id="__FQm1dWa5RZJD3Dozvy-43" value="" style="text;html=1;strokeColor=none;fillColor=none;align=left;verticalAlign=middle;whiteSpace=wrap;rounded=0;movable=0;resizable=0;connectable=0;allowArrows=0;rotatable=0;cloneable=0;deletable=0;spacingLeft=6;autosize=1;resizeWidth=0;" parent="__FQm1dWa5RZJD3Dozvy-41" vertex="1">
          <mxGeometry x="35" y="-5" width="50" height="40" as="geometry" />
        </mxCell>
        <mxCell id="__FQm1dWa5RZJD3Dozvy-44" value="azonosító" style="endArrow=classic;html=1;rounded=0;verticalAlign=bottom;entryX=1.01;entryY=0.387;entryDx=0;entryDy=0;entryPerimeter=0;exitX=0;exitY=0.33;exitDx=0;exitDy=0;exitPerimeter=0;" parent="1" source="__FQm1dWa5RZJD3Dozvy-4" target="__FQm1dWa5RZJD3Dozvy-41" edge="1">
          <mxGeometry width="50" height="50" relative="1" as="geometry">
            <mxPoint x="710" y="450" as="sourcePoint" />
            <mxPoint x="830" y="450" as="targetPoint" />
          </mxGeometry>
        </mxCell>
        <mxCell id="__FQm1dWa5RZJD3Dozvy-45" value="&lt;font style=&quot;font-size: 8px;&quot;&gt;OTP&lt;br&gt;Egyszeri belépésre alkalmas jelszó&lt;/font&gt;" style="shape=flexArrow;endArrow=classic;html=1;rounded=0;width=20;startWidth=0;endWidth=0;entryX=0.089;entryY=0.797;entryDx=0;entryDy=0;entryPerimeter=0;exitX=1;exitY=0.71;exitDx=0;exitDy=0;exitPerimeter=0;endSize=5.993103448275862;" parent="1" source="__FQm1dWa5RZJD3Dozvy-41" target="__FQm1dWa5RZJD3Dozvy-4" edge="1">
          <mxGeometry x="-0.0038" y="-1" width="50" height="50" relative="1" as="geometry">
            <mxPoint x="220" y="434" as="sourcePoint" />
            <mxPoint x="600" y="470" as="targetPoint" />
            <Array as="points">
              <mxPoint x="260" y="435" />
            </Array>
            <mxPoint as="offset" />
          </mxGeometry>
        </mxCell>
      </root>
    </mxGraphModel>
  </diagram>
  <diagram id="G8-vrVgabjx_U2kyTn2w" name="2. szintű logikai AFD">
    <mxGraphModel dx="1434" dy="774" grid="1" gridSize="10" guides="1" tooltips="1" connect="1" arrows="1" fold="1" page="1" pageScale="1" pageWidth="827" pageHeight="1169" math="0" shadow="0">
      <root>
        <mxCell id="0" />
        <mxCell id="1" parent="0" />
        <mxCell id="9ZUAivom6Jb9VJ7WRq96-1" value="2. szintű logikai AFD" style="text;strokeColor=none;fillColor=none;html=1;fontSize=24;fontStyle=1;verticalAlign=middle;align=center;" parent="1" vertex="1">
          <mxGeometry x="310" y="100" width="100" height="40" as="geometry" />
        </mxCell>
        <mxCell id="9ZUAivom6Jb9VJ7WRq96-2" value="" style="html=1;dashed=0;whitespace=wrap;shape=mxgraph.dfd.process;align=center;container=1;collapsible=0;spacingTop=30;" parent="1" vertex="1">
          <mxGeometry x="420" y="190" width="480" height="780" as="geometry" />
        </mxCell>
        <mxCell id="9ZUAivom6Jb9VJ7WRq96-3" value="1." style="text;html=1;strokeColor=none;fillColor=none;align=center;verticalAlign=middle;whiteSpace=wrap;rounded=0;movable=0;resizable=0;rotatable=0;cloneable=0;deletable=0;connectable=0;allowArrows=0;pointerEvents=1;" parent="9ZUAivom6Jb9VJ7WRq96-2" vertex="1">
          <mxGeometry width="35" height="30" as="geometry" />
        </mxCell>
        <mxCell id="9ZUAivom6Jb9VJ7WRq96-4" value="" style="text;html=1;strokeColor=none;fillColor=none;align=left;verticalAlign=middle;whiteSpace=wrap;rounded=0;movable=0;resizable=0;connectable=0;allowArrows=0;rotatable=0;cloneable=0;deletable=0;spacingLeft=6;autosize=1;resizeWidth=0;" parent="9ZUAivom6Jb9VJ7WRq96-2" vertex="1">
          <mxGeometry x="35" y="-5" width="50" height="40" as="geometry" />
        </mxCell>
        <mxCell id="9ZUAivom6Jb9VJ7WRq96-5" value="Regisztráció" style="html=1;dashed=0;whitespace=wrap;shape=mxgraph.dfd.process2;align=center;container=1;collapsible=0;spacingTop=30;" parent="9ZUAivom6Jb9VJ7WRq96-2" vertex="1">
          <mxGeometry x="151" y="43.33333333333333" width="160" height="130" as="geometry" />
        </mxCell>
        <mxCell id="9ZUAivom6Jb9VJ7WRq96-6" value="1.1" style="text;html=1;strokeColor=none;fillColor=none;align=center;verticalAlign=middle;whiteSpace=wrap;rounded=0;connectable=0;allowArrows=0;editable=1;movable=0;resizable=0;rotatable=0;deletable=0;locked=0;cloneable=0;" parent="9ZUAivom6Jb9VJ7WRq96-5" vertex="1">
          <mxGeometry width="35" height="30" as="geometry" />
        </mxCell>
        <mxCell id="9ZUAivom6Jb9VJ7WRq96-7" value="" style="text;strokeColor=none;fillColor=none;align=left;verticalAlign=middle;whiteSpace=wrap;rounded=0;autosize=1;connectable=0;allowArrows=0;movable=0;resizable=0;rotatable=0;deletable=0;cloneable=0;spacingLeft=6;fontStyle=0;html=1;" parent="9ZUAivom6Jb9VJ7WRq96-5" vertex="1">
          <mxGeometry x="35" y="-5" width="50" height="40" as="geometry" />
        </mxCell>
        <mxCell id="9ZUAivom6Jb9VJ7WRq96-8" value="Utazás vásárlás" style="html=1;dashed=0;whitespace=wrap;shape=mxgraph.dfd.process2;align=center;container=1;collapsible=0;spacingTop=30;" parent="9ZUAivom6Jb9VJ7WRq96-2" vertex="1">
          <mxGeometry x="151" y="329.99666666666667" width="160" height="130" as="geometry" />
        </mxCell>
        <mxCell id="9ZUAivom6Jb9VJ7WRq96-9" value="1.3" style="text;html=1;strokeColor=none;fillColor=none;align=center;verticalAlign=middle;whiteSpace=wrap;rounded=0;connectable=0;allowArrows=0;editable=1;movable=0;resizable=0;rotatable=0;deletable=0;locked=0;cloneable=0;" parent="9ZUAivom6Jb9VJ7WRq96-8" vertex="1">
          <mxGeometry width="35" height="30" as="geometry" />
        </mxCell>
        <mxCell id="9ZUAivom6Jb9VJ7WRq96-10" value="" style="text;strokeColor=none;fillColor=none;align=left;verticalAlign=middle;whiteSpace=wrap;rounded=0;autosize=1;connectable=0;allowArrows=0;movable=0;resizable=0;rotatable=0;deletable=0;cloneable=0;spacingLeft=6;fontStyle=0;html=1;" parent="9ZUAivom6Jb9VJ7WRq96-8" vertex="1">
          <mxGeometry x="35" y="-5" width="50" height="40" as="geometry" />
        </mxCell>
        <mxCell id="9ZUAivom6Jb9VJ7WRq96-11" value="Lekérés" style="html=1;dashed=0;whitespace=wrap;shape=mxgraph.dfd.process2;align=center;container=1;collapsible=0;spacingTop=30;" parent="9ZUAivom6Jb9VJ7WRq96-2" vertex="1">
          <mxGeometry x="151" y="480.00333333333333" width="160" height="130" as="geometry" />
        </mxCell>
        <mxCell id="9ZUAivom6Jb9VJ7WRq96-12" value="1.4" style="text;html=1;strokeColor=none;fillColor=none;align=center;verticalAlign=middle;whiteSpace=wrap;rounded=0;connectable=0;allowArrows=0;editable=1;movable=0;resizable=0;rotatable=0;deletable=0;locked=0;cloneable=0;" parent="9ZUAivom6Jb9VJ7WRq96-11" vertex="1">
          <mxGeometry width="35" height="30" as="geometry" />
        </mxCell>
        <mxCell id="9ZUAivom6Jb9VJ7WRq96-13" value="" style="text;strokeColor=none;fillColor=none;align=left;verticalAlign=middle;whiteSpace=wrap;rounded=0;autosize=1;connectable=0;allowArrows=0;movable=0;resizable=0;rotatable=0;deletable=0;cloneable=0;spacingLeft=6;fontStyle=0;html=1;" parent="9ZUAivom6Jb9VJ7WRq96-11" vertex="1">
          <mxGeometry x="35" y="-5" width="50" height="40" as="geometry" />
        </mxCell>
        <mxCell id="9ZUAivom6Jb9VJ7WRq96-14" value="Módosítás" style="html=1;dashed=0;whitespace=wrap;shape=mxgraph.dfd.process2;align=center;container=1;collapsible=0;spacingTop=30;" parent="9ZUAivom6Jb9VJ7WRq96-2" vertex="1">
          <mxGeometry x="151" y="630.0033333333332" width="160" height="130" as="geometry" />
        </mxCell>
        <mxCell id="9ZUAivom6Jb9VJ7WRq96-15" value="1.5" style="text;html=1;strokeColor=none;fillColor=none;align=center;verticalAlign=middle;whiteSpace=wrap;rounded=0;connectable=0;allowArrows=0;editable=1;movable=0;resizable=0;rotatable=0;deletable=0;locked=0;cloneable=0;" parent="9ZUAivom6Jb9VJ7WRq96-14" vertex="1">
          <mxGeometry width="35" height="30" as="geometry" />
        </mxCell>
        <mxCell id="9ZUAivom6Jb9VJ7WRq96-16" value="" style="text;strokeColor=none;fillColor=none;align=left;verticalAlign=middle;whiteSpace=wrap;rounded=0;autosize=1;connectable=0;allowArrows=0;movable=0;resizable=0;rotatable=0;deletable=0;cloneable=0;spacingLeft=6;fontStyle=0;html=1;" parent="9ZUAivom6Jb9VJ7WRq96-14" vertex="1">
          <mxGeometry x="35" y="-5" width="50" height="40" as="geometry" />
        </mxCell>
        <mxCell id="9ZUAivom6Jb9VJ7WRq96-17" value="Belépés" style="html=1;dashed=0;whitespace=wrap;shape=mxgraph.dfd.process2;align=center;container=1;collapsible=0;spacingTop=30;" parent="9ZUAivom6Jb9VJ7WRq96-2" vertex="1">
          <mxGeometry x="151" y="189.99666666666667" width="160" height="130" as="geometry" />
        </mxCell>
        <mxCell id="9ZUAivom6Jb9VJ7WRq96-18" value="1.2" style="text;html=1;strokeColor=none;fillColor=none;align=center;verticalAlign=middle;whiteSpace=wrap;rounded=0;connectable=0;allowArrows=0;editable=1;movable=0;resizable=0;rotatable=0;deletable=0;locked=0;cloneable=0;" parent="9ZUAivom6Jb9VJ7WRq96-17" vertex="1">
          <mxGeometry width="35" height="30" as="geometry" />
        </mxCell>
        <mxCell id="9ZUAivom6Jb9VJ7WRq96-19" value="" style="text;strokeColor=none;fillColor=none;align=left;verticalAlign=middle;whiteSpace=wrap;rounded=0;autosize=1;connectable=0;allowArrows=0;movable=0;resizable=0;rotatable=0;deletable=0;cloneable=0;spacingLeft=6;fontStyle=0;html=1;" parent="9ZUAivom6Jb9VJ7WRq96-17" vertex="1">
          <mxGeometry x="35" y="-5" width="50" height="40" as="geometry" />
        </mxCell>
        <mxCell id="9ZUAivom6Jb9VJ7WRq96-20" value="Vendég" style="ellipse;whiteSpace=wrap;html=1;" parent="1" vertex="1">
          <mxGeometry x="240" y="255" width="120" height="80" as="geometry" />
        </mxCell>
        <mxCell id="9ZUAivom6Jb9VJ7WRq96-21" value="adatok" style="endArrow=classic;html=1;rounded=0;verticalAlign=bottom;exitX=1;exitY=0.5;exitDx=0;exitDy=0;" parent="1" source="9ZUAivom6Jb9VJ7WRq96-20" edge="1">
          <mxGeometry width="50" height="50" relative="1" as="geometry">
            <mxPoint x="180" y="500" as="sourcePoint" />
            <mxPoint x="570" y="295" as="targetPoint" />
          </mxGeometry>
        </mxCell>
        <mxCell id="9ZUAivom6Jb9VJ7WRq96-22" value="felhasználók adatai" style="html=1;dashed=0;whitespace=wrap;shape=mxgraph.dfd.dataStoreID;align=left;spacingLeft=33;container=1;collapsible=0;autosize=0;" parent="1" vertex="1">
          <mxGeometry x="940" y="305" width="140" height="30" as="geometry" />
        </mxCell>
        <mxCell id="9ZUAivom6Jb9VJ7WRq96-23" value="D1" style="text;html=1;strokeColor=none;fillColor=none;align=center;verticalAlign=middle;whiteSpace=wrap;rounded=0;movable=0;resizable=0;rotatable=0;cloneable=0;deletable=0;allowArrows=0;connectable=0;" parent="9ZUAivom6Jb9VJ7WRq96-22" vertex="1">
          <mxGeometry width="30" height="30" as="geometry" />
        </mxCell>
        <mxCell id="9ZUAivom6Jb9VJ7WRq96-24" value="adatok" style="endArrow=classic;html=1;rounded=0;verticalAlign=bottom;entryX=-0.019;entryY=0.502;entryDx=0;entryDy=0;entryPerimeter=0;exitX=1.006;exitY=0.659;exitDx=0;exitDy=0;exitPerimeter=0;" parent="1" source="9ZUAivom6Jb9VJ7WRq96-5" target="9ZUAivom6Jb9VJ7WRq96-22" edge="1">
          <mxGeometry width="50" height="50" relative="1" as="geometry">
            <mxPoint x="180" y="500" as="sourcePoint" />
            <mxPoint x="300" y="500" as="targetPoint" />
          </mxGeometry>
        </mxCell>
        <mxCell id="9ZUAivom6Jb9VJ7WRq96-25" value="Felhasználó" style="ellipse;whiteSpace=wrap;html=1;" parent="1" vertex="1">
          <mxGeometry x="240" y="540" width="120" height="80" as="geometry" />
        </mxCell>
        <mxCell id="9ZUAivom6Jb9VJ7WRq96-26" value="utazási, számlázási adatok" style="endArrow=classic;html=1;rounded=0;verticalAlign=bottom;entryX=0;entryY=0.362;entryDx=0;entryDy=0;entryPerimeter=0;" parent="1" target="9ZUAivom6Jb9VJ7WRq96-8" edge="1">
          <mxGeometry width="50" height="50" relative="1" as="geometry">
            <mxPoint x="360" y="567" as="sourcePoint" />
            <mxPoint x="570" y="490" as="targetPoint" />
          </mxGeometry>
        </mxCell>
        <mxCell id="9ZUAivom6Jb9VJ7WRq96-27" value="utazások" style="html=1;dashed=0;whitespace=wrap;shape=mxgraph.dfd.dataStoreID;align=left;spacingLeft=33;container=1;collapsible=0;autosize=0;" parent="1" vertex="1">
          <mxGeometry x="940" y="500" width="140" height="30" as="geometry" />
        </mxCell>
        <mxCell id="9ZUAivom6Jb9VJ7WRq96-28" value="D5" style="text;html=1;strokeColor=none;fillColor=none;align=center;verticalAlign=middle;whiteSpace=wrap;rounded=0;movable=0;resizable=0;rotatable=0;cloneable=0;deletable=0;allowArrows=0;connectable=0;" parent="9ZUAivom6Jb9VJ7WRq96-27" vertex="1">
          <mxGeometry width="30" height="30" as="geometry" />
        </mxCell>
        <mxCell id="9ZUAivom6Jb9VJ7WRq96-29" value="repülőjegy (és biztosítás)" style="shape=flexArrow;endArrow=classic;html=1;rounded=0;width=20;startWidth=0;endWidth=0;entryX=0.983;entryY=0.688;entryDx=0;entryDy=0;entryPerimeter=0;" parent="1" target="9ZUAivom6Jb9VJ7WRq96-25" edge="1">
          <mxGeometry x="0.0506" y="1" width="50" height="50" relative="1" as="geometry">
            <mxPoint x="570" y="595" as="sourcePoint" />
            <mxPoint x="-510" y="385" as="targetPoint" />
            <mxPoint x="1" as="offset" />
            <Array as="points" />
          </mxGeometry>
        </mxCell>
        <mxCell id="9ZUAivom6Jb9VJ7WRq96-30" value="utazási információk" style="endArrow=classic;startArrow=classic;html=1;rounded=0;verticalAlign=bottom;entryX=-0.011;entryY=0.547;entryDx=0;entryDy=0;entryPerimeter=0;exitX=1;exitY=0.462;exitDx=0;exitDy=0;exitPerimeter=0;" parent="1" source="9ZUAivom6Jb9VJ7WRq96-11" target="9ZUAivom6Jb9VJ7WRq96-32" edge="1">
          <mxGeometry x="-0.5827" width="50" height="50" relative="1" as="geometry">
            <mxPoint x="733.5599999999995" y="589.5200000000002" as="sourcePoint" />
            <mxPoint x="300" y="500" as="targetPoint" />
            <Array as="points">
              <mxPoint x="880" y="730" />
              <mxPoint x="880" y="426" />
            </Array>
            <mxPoint as="offset" />
          </mxGeometry>
        </mxCell>
        <mxCell id="9ZUAivom6Jb9VJ7WRq96-31" value="utazási információk" style="endArrow=classic;startArrow=classic;html=1;rounded=0;verticalAlign=bottom;entryX=0;entryY=0.308;entryDx=0;entryDy=0;entryPerimeter=0;exitX=0.643;exitY=1.015;exitDx=0;exitDy=0;exitPerimeter=0;" parent="1" source="9ZUAivom6Jb9VJ7WRq96-25" target="9ZUAivom6Jb9VJ7WRq96-11" edge="1">
          <mxGeometry width="50" height="50" relative="1" as="geometry">
            <mxPoint x="180" y="500" as="sourcePoint" />
            <mxPoint x="570.04" y="593" as="targetPoint" />
            <Array as="points">
              <mxPoint x="317" y="710" />
            </Array>
          </mxGeometry>
        </mxCell>
        <mxCell id="9ZUAivom6Jb9VJ7WRq96-32" value="szállodák" style="html=1;dashed=0;whitespace=wrap;shape=mxgraph.dfd.dataStoreID;align=left;spacingLeft=33;container=1;collapsible=0;autosize=0;" parent="1" vertex="1">
          <mxGeometry x="940" y="410" width="140" height="30" as="geometry" />
        </mxCell>
        <mxCell id="9ZUAivom6Jb9VJ7WRq96-33" value="D3" style="text;html=1;strokeColor=none;fillColor=none;align=center;verticalAlign=middle;whiteSpace=wrap;rounded=0;movable=0;resizable=0;rotatable=0;cloneable=0;deletable=0;allowArrows=0;connectable=0;" parent="9ZUAivom6Jb9VJ7WRq96-32" vertex="1">
          <mxGeometry width="30" height="30" as="geometry" />
        </mxCell>
        <mxCell id="9ZUAivom6Jb9VJ7WRq96-34" value="biztosítások" style="html=1;dashed=0;whitespace=wrap;shape=mxgraph.dfd.dataStoreID;align=left;spacingLeft=33;container=1;collapsible=0;autosize=0;" parent="1" vertex="1">
          <mxGeometry x="940" y="455" width="140" height="30" as="geometry" />
        </mxCell>
        <mxCell id="9ZUAivom6Jb9VJ7WRq96-35" value="D4" style="text;html=1;strokeColor=none;fillColor=none;align=center;verticalAlign=middle;whiteSpace=wrap;rounded=0;movable=0;resizable=0;rotatable=0;cloneable=0;deletable=0;allowArrows=0;connectable=0;" parent="9ZUAivom6Jb9VJ7WRq96-34" vertex="1">
          <mxGeometry width="30" height="30" as="geometry" />
        </mxCell>
        <mxCell id="9ZUAivom6Jb9VJ7WRq96-36" value="menetrendek" style="html=1;dashed=0;whitespace=wrap;shape=mxgraph.dfd.dataStoreID;align=left;spacingLeft=33;container=1;collapsible=0;autosize=0;" parent="1" vertex="1">
          <mxGeometry x="940" y="770" width="140" height="30" as="geometry" />
        </mxCell>
        <mxCell id="9ZUAivom6Jb9VJ7WRq96-37" value="D6" style="text;html=1;strokeColor=none;fillColor=none;align=center;verticalAlign=middle;whiteSpace=wrap;rounded=0;movable=0;resizable=0;rotatable=0;cloneable=0;deletable=0;allowArrows=0;connectable=0;" parent="9ZUAivom6Jb9VJ7WRq96-36" vertex="1">
          <mxGeometry width="30" height="30" as="geometry" />
        </mxCell>
        <mxCell id="9ZUAivom6Jb9VJ7WRq96-38" value="Adminisztrátor" style="ellipse;whiteSpace=wrap;html=1;" parent="1" vertex="1">
          <mxGeometry x="240" y="770" width="120" height="80" as="geometry" />
        </mxCell>
        <mxCell id="9ZUAivom6Jb9VJ7WRq96-39" value="mit mire" style="endArrow=classic;html=1;rounded=0;verticalAlign=bottom;exitX=0.5;exitY=1;exitDx=0;exitDy=0;entryX=-0.012;entryY=0.323;entryDx=0;entryDy=0;entryPerimeter=0;" parent="1" source="9ZUAivom6Jb9VJ7WRq96-38" target="9ZUAivom6Jb9VJ7WRq96-14" edge="1">
          <mxGeometry width="50" height="50" relative="1" as="geometry">
            <mxPoint x="330" y="490" as="sourcePoint" />
            <mxPoint x="570.04" y="750.04" as="targetPoint" />
            <Array as="points">
              <mxPoint x="300" y="862" />
            </Array>
          </mxGeometry>
        </mxCell>
        <mxCell id="9ZUAivom6Jb9VJ7WRq96-40" value="menetrend módosítás" style="endArrow=classic;html=1;rounded=0;verticalAlign=bottom;entryX=0.579;entryY=1.167;entryDx=0;entryDy=0;entryPerimeter=0;exitX=1.006;exitY=0.154;exitDx=0;exitDy=0;exitPerimeter=0;" parent="1" source="9ZUAivom6Jb9VJ7WRq96-14" target="9ZUAivom6Jb9VJ7WRq96-36" edge="1">
          <mxGeometry x="0.0609" y="-10" width="50" height="50" relative="1" as="geometry">
            <mxPoint x="732.44" y="720.4000000000001" as="sourcePoint" />
            <mxPoint x="580" y="600" as="targetPoint" />
            <Array as="points">
              <mxPoint x="1021" y="840" />
            </Array>
            <mxPoint as="offset" />
          </mxGeometry>
        </mxCell>
        <mxCell id="9ZUAivom6Jb9VJ7WRq96-41" value="utazás módosítás" style="endArrow=classic;html=1;rounded=0;verticalAlign=bottom;exitX=0.994;exitY=0.3;exitDx=0;exitDy=0;exitPerimeter=0;" parent="1" source="9ZUAivom6Jb9VJ7WRq96-14" edge="1">
          <mxGeometry x="-0.6801" y="-1" width="50" height="50" relative="1" as="geometry">
            <mxPoint x="735" y="736.96" as="sourcePoint" />
            <mxPoint x="1080" y="520" as="targetPoint" />
            <Array as="points">
              <mxPoint x="1110" y="860" />
              <mxPoint x="1110" y="520" />
            </Array>
            <mxPoint as="offset" />
          </mxGeometry>
        </mxCell>
        <mxCell id="9ZUAivom6Jb9VJ7WRq96-42" value="biztosítás módosítás&lt;br&gt;" style="endArrow=classic;html=1;rounded=0;verticalAlign=bottom;exitX=1.006;exitY=0.446;exitDx=0;exitDy=0;exitPerimeter=0;" parent="1" source="9ZUAivom6Jb9VJ7WRq96-14" target="9ZUAivom6Jb9VJ7WRq96-34" edge="1">
          <mxGeometry x="-0.4429" y="-10" width="50" height="50" relative="1" as="geometry">
            <mxPoint x="733.0799999999999" y="751" as="sourcePoint" />
            <mxPoint x="530" y="520" as="targetPoint" />
            <Array as="points">
              <mxPoint x="1120" y="880" />
              <mxPoint x="1120" y="470" />
            </Array>
            <mxPoint as="offset" />
          </mxGeometry>
        </mxCell>
        <mxCell id="9ZUAivom6Jb9VJ7WRq96-43" value="szálláshely módosítás" style="endArrow=classic;html=1;rounded=0;verticalAlign=bottom;exitX=1.006;exitY=0.6;exitDx=0;exitDy=0;exitPerimeter=0;" parent="1" source="9ZUAivom6Jb9VJ7WRq96-14" target="9ZUAivom6Jb9VJ7WRq96-32" edge="1">
          <mxGeometry x="-0.6576" y="-1" width="50" height="50" relative="1" as="geometry">
            <mxPoint x="731.1599999999999" y="767.0799999999999" as="sourcePoint" />
            <mxPoint x="650" y="530" as="targetPoint" />
            <Array as="points">
              <mxPoint x="1130" y="900" />
              <mxPoint x="1130" y="425" />
            </Array>
            <mxPoint as="offset" />
          </mxGeometry>
        </mxCell>
        <mxCell id="9ZUAivom6Jb9VJ7WRq96-44" value="menetrend infók" style="endArrow=classic;startArrow=classic;html=1;rounded=0;verticalAlign=bottom;entryX=-0.014;entryY=0.5;entryDx=0;entryDy=0;entryPerimeter=0;exitX=1.021;exitY=0.873;exitDx=0;exitDy=0;exitPerimeter=0;" parent="1" source="9ZUAivom6Jb9VJ7WRq96-11" target="9ZUAivom6Jb9VJ7WRq96-36" edge="1">
          <mxGeometry width="50" height="50" relative="1" as="geometry">
            <mxPoint x="740" y="630" as="sourcePoint" />
            <mxPoint x="730" y="490" as="targetPoint" />
            <Array as="points">
              <mxPoint x="850" y="783" />
            </Array>
          </mxGeometry>
        </mxCell>
        <mxCell id="9ZUAivom6Jb9VJ7WRq96-45" value="érintett változásokról értesítés" style="endArrow=classic;html=1;rounded=0;verticalAlign=bottom;entryX=0.358;entryY=1;entryDx=0;entryDy=0;entryPerimeter=0;exitX=0;exitY=0.6;exitDx=0;exitDy=0;exitPerimeter=0;" parent="1" source="9ZUAivom6Jb9VJ7WRq96-11" target="9ZUAivom6Jb9VJ7WRq96-25" edge="1">
          <mxGeometry x="-0.2453" width="50" height="50" relative="1" as="geometry">
            <mxPoint x="570" y="690" as="sourcePoint" />
            <mxPoint x="710" y="540" as="targetPoint" />
            <Array as="points">
              <mxPoint x="283" y="750" />
            </Array>
            <mxPoint as="offset" />
          </mxGeometry>
        </mxCell>
        <mxCell id="9ZUAivom6Jb9VJ7WRq96-46" value="profil módosítás vagy törlés" style="endArrow=classic;html=1;rounded=0;verticalAlign=bottom;exitX=-0.002;exitY=0.627;exitDx=0;exitDy=0;exitPerimeter=0;" parent="1" source="9ZUAivom6Jb9VJ7WRq96-25" edge="1">
          <mxGeometry x="0.5026" width="50" height="50" relative="1" as="geometry">
            <mxPoint x="600" y="540" as="sourcePoint" />
            <mxPoint x="570" y="890" as="targetPoint" />
            <Array as="points">
              <mxPoint x="220" y="590" />
              <mxPoint x="220" y="890" />
              <mxPoint x="390" y="890" />
            </Array>
            <mxPoint as="offset" />
          </mxGeometry>
        </mxCell>
        <mxCell id="9ZUAivom6Jb9VJ7WRq96-47" value="profil módosítása vagy törlése" style="endArrow=classic;html=1;rounded=0;verticalAlign=bottom;exitX=1;exitY=0.892;exitDx=0;exitDy=0;exitPerimeter=0;" parent="1" source="9ZUAivom6Jb9VJ7WRq96-14" target="9ZUAivom6Jb9VJ7WRq96-22" edge="1">
          <mxGeometry x="-0.5" width="50" height="50" relative="1" as="geometry">
            <mxPoint x="700" y="620" as="sourcePoint" />
            <mxPoint x="820" y="620" as="targetPoint" />
            <Array as="points">
              <mxPoint x="1170" y="936" />
              <mxPoint x="1170" y="320" />
            </Array>
            <mxPoint as="offset" />
          </mxGeometry>
        </mxCell>
        <mxCell id="9ZUAivom6Jb9VJ7WRq96-48" value="" style="endArrow=classic;html=1;rounded=0;verticalAlign=bottom;entryX=0;entryY=0.5;entryDx=0;entryDy=0;entryPerimeter=0;" parent="1" target="9ZUAivom6Jb9VJ7WRq96-34" edge="1">
          <mxGeometry width="50" height="50" relative="1" as="geometry">
            <mxPoint x="880" y="470" as="sourcePoint" />
            <mxPoint x="880" y="480" as="targetPoint" />
          </mxGeometry>
        </mxCell>
        <mxCell id="9ZUAivom6Jb9VJ7WRq96-49" value="" style="endArrow=classic;html=1;rounded=0;verticalAlign=bottom;entryX=0;entryY=0.667;entryDx=0;entryDy=0;entryPerimeter=0;" parent="1" target="9ZUAivom6Jb9VJ7WRq96-27" edge="1">
          <mxGeometry width="50" height="50" relative="1" as="geometry">
            <mxPoint x="880" y="520" as="sourcePoint" />
            <mxPoint x="880" y="480" as="targetPoint" />
          </mxGeometry>
        </mxCell>
        <mxCell id="9ZUAivom6Jb9VJ7WRq96-50" value="jegyek" style="html=1;dashed=0;whitespace=wrap;shape=mxgraph.dfd.dataStoreID;align=left;spacingLeft=33;container=1;collapsible=0;autosize=0;" parent="1" vertex="1">
          <mxGeometry x="940" y="360" width="140" height="30" as="geometry" />
        </mxCell>
        <mxCell id="9ZUAivom6Jb9VJ7WRq96-51" value="D2" style="text;html=1;strokeColor=none;fillColor=none;align=center;verticalAlign=middle;whiteSpace=wrap;rounded=0;movable=0;resizable=0;rotatable=0;cloneable=0;deletable=0;allowArrows=0;connectable=0;" parent="9ZUAivom6Jb9VJ7WRq96-50" vertex="1">
          <mxGeometry width="30" height="30" as="geometry" />
        </mxCell>
        <mxCell id="9ZUAivom6Jb9VJ7WRq96-52" value="jegy törlése vagy módosítása" style="endArrow=classic;html=1;rounded=0;verticalAlign=bottom;exitX=0.994;exitY=0.762;exitDx=0;exitDy=0;exitPerimeter=0;" parent="1" source="9ZUAivom6Jb9VJ7WRq96-14" target="9ZUAivom6Jb9VJ7WRq96-50" edge="1">
          <mxGeometry x="-0.3866" width="50" height="50" relative="1" as="geometry">
            <mxPoint x="730" y="890" as="sourcePoint" />
            <mxPoint x="840" y="540" as="targetPoint" />
            <Array as="points">
              <mxPoint x="870" y="920" />
              <mxPoint x="1150" y="920" />
              <mxPoint x="1150" y="375" />
            </Array>
            <mxPoint as="offset" />
          </mxGeometry>
        </mxCell>
        <mxCell id="9ZUAivom6Jb9VJ7WRq96-53" value="jegy módosítás vagy lemondás" style="endArrow=classic;html=1;rounded=0;verticalAlign=bottom;exitX=0;exitY=0.5;exitDx=0;exitDy=0;entryX=-0.025;entryY=0.9;entryDx=0;entryDy=0;entryPerimeter=0;" parent="1" source="9ZUAivom6Jb9VJ7WRq96-25" target="9ZUAivom6Jb9VJ7WRq96-14" edge="1">
          <mxGeometry x="0.4207" y="9" width="50" height="50" relative="1" as="geometry">
            <mxPoint x="730" y="550" as="sourcePoint" />
            <mxPoint x="620" y="850" as="targetPoint" />
            <Array as="points">
              <mxPoint x="200" y="580" />
              <mxPoint x="200" y="940" />
              <mxPoint x="460" y="937" />
            </Array>
            <mxPoint as="offset" />
          </mxGeometry>
        </mxCell>
        <mxCell id="9ZUAivom6Jb9VJ7WRq96-54" value="&lt;font style=&quot;font-size: 12px;&quot;&gt;azonosító&lt;/font&gt;" style="endArrow=classic;html=1;rounded=0;verticalAlign=bottom;fontSize=8;entryX=-0.025;entryY=0.169;entryDx=0;entryDy=0;entryPerimeter=0;exitX=0.075;exitY=0.225;exitDx=0;exitDy=0;exitPerimeter=0;" parent="1" source="9ZUAivom6Jb9VJ7WRq96-25" target="9ZUAivom6Jb9VJ7WRq96-17" edge="1">
          <mxGeometry width="50" height="50" relative="1" as="geometry">
            <mxPoint x="680" y="540" as="sourcePoint" />
            <mxPoint x="800" y="540" as="targetPoint" />
            <Array as="points">
              <mxPoint x="250" y="402" />
            </Array>
          </mxGeometry>
        </mxCell>
        <mxCell id="9ZUAivom6Jb9VJ7WRq96-55" value="OTP egyszer használatos jelszó" style="shape=flexArrow;endArrow=classic;html=1;rounded=0;width=20;startWidth=0;endWidth=0;fontSize=12;exitX=0;exitY=0.631;exitDx=0;exitDy=0;exitPerimeter=0;entryX=0.5;entryY=0;entryDx=0;entryDy=0;" parent="1" source="9ZUAivom6Jb9VJ7WRq96-17" target="9ZUAivom6Jb9VJ7WRq96-25" edge="1">
          <mxGeometry width="50" height="50" relative="1" as="geometry">
            <mxPoint x="680" y="540" as="sourcePoint" />
            <mxPoint x="800" y="540" as="targetPoint" />
            <Array as="points">
              <mxPoint x="300" y="462" />
            </Array>
          </mxGeometry>
        </mxCell>
        <mxCell id="9ZUAivom6Jb9VJ7WRq96-56" value="azonosító ellenőrzése" style="endArrow=classic;html=1;rounded=0;verticalAlign=bottom;fontSize=12;exitX=1;exitY=0.431;exitDx=0;exitDy=0;exitPerimeter=0;entryX=0;entryY=0.733;entryDx=0;entryDy=0;entryPerimeter=0;" parent="1" source="9ZUAivom6Jb9VJ7WRq96-17" target="9ZUAivom6Jb9VJ7WRq96-22" edge="1">
          <mxGeometry width="50" height="50" relative="1" as="geometry">
            <mxPoint x="680" y="600" as="sourcePoint" />
            <mxPoint x="800" y="600" as="targetPoint" />
            <Array as="points">
              <mxPoint x="830" y="436" />
              <mxPoint x="830" y="328" />
            </Array>
          </mxGeometry>
        </mxCell>
      </root>
    </mxGraphModel>
  </diagram>
  <diagram id="prvFNx7tOEnpQYEl3h-Y" name="Szerep-funkció mátrix">
    <mxGraphModel dx="1434" dy="774" grid="1" gridSize="10" guides="1" tooltips="1" connect="1" arrows="1" fold="1" page="1" pageScale="1" pageWidth="827" pageHeight="1169" math="0" shadow="0">
      <root>
        <mxCell id="0" />
        <mxCell id="1" parent="0" />
        <mxCell id="L8_frsu4Mr66cAmiDdDQ-1" value="Szerep-funkció mátrix" style="text;strokeColor=none;fillColor=none;html=1;fontSize=24;fontStyle=1;verticalAlign=middle;align=center;" parent="1" vertex="1">
          <mxGeometry x="180" y="60" width="100" height="40" as="geometry" />
        </mxCell>
        <mxCell id="L8_frsu4Mr66cAmiDdDQ-15" value="Szerep-funkció mátrix" style="rounded=0;whiteSpace=wrap;html=1;" parent="1" vertex="1">
          <mxGeometry x="110" y="150" width="110" height="150" as="geometry" />
        </mxCell>
        <mxCell id="L8_frsu4Mr66cAmiDdDQ-16" value="Vendég" style="rounded=0;whiteSpace=wrap;html=1;" parent="1" vertex="1">
          <mxGeometry x="110" y="300" width="110" height="40" as="geometry" />
        </mxCell>
        <mxCell id="epUvMfKPBlHZv6ZQp0d9-1" value="Felhasználó" style="rounded=0;whiteSpace=wrap;html=1;" parent="1" vertex="1">
          <mxGeometry x="110" y="340" width="110" height="40" as="geometry" />
        </mxCell>
        <mxCell id="epUvMfKPBlHZv6ZQp0d9-2" value="Admin" style="rounded=0;whiteSpace=wrap;html=1;" parent="1" vertex="1">
          <mxGeometry x="110" y="380" width="110" height="40" as="geometry" />
        </mxCell>
        <mxCell id="uW6rm8f2bZNPcvRnJSRU-1" value="Regisztáció" style="rounded=0;whiteSpace=wrap;html=1;rotation=-90;" parent="1" vertex="1">
          <mxGeometry x="170" y="200" width="150" height="50" as="geometry" />
        </mxCell>
        <mxCell id="uW6rm8f2bZNPcvRnJSRU-2" value="Belépés" style="rounded=0;whiteSpace=wrap;html=1;rotation=-90;" parent="1" vertex="1">
          <mxGeometry x="220" y="200" width="150" height="50" as="geometry" />
        </mxCell>
        <mxCell id="uW6rm8f2bZNPcvRnJSRU-3" value="Utazás vásárlás" style="rounded=0;whiteSpace=wrap;html=1;rotation=-90;" parent="1" vertex="1">
          <mxGeometry x="270" y="200" width="150" height="50" as="geometry" />
        </mxCell>
        <mxCell id="q6odrk_o8haq6dZAiKZI-1" value="Utazási információk lekérése" style="rounded=0;whiteSpace=wrap;html=1;rotation=-90;" parent="1" vertex="1">
          <mxGeometry x="320" y="200" width="150" height="50" as="geometry" />
        </mxCell>
        <mxCell id="v_gJ_FAsSPa6hFGW54se-1" value="Biztosítások lekérése" style="rounded=0;whiteSpace=wrap;html=1;rotation=-90;" parent="1" vertex="1">
          <mxGeometry x="420" y="200" width="150" height="50" as="geometry" />
        </mxCell>
        <mxCell id="v_gJ_FAsSPa6hFGW54se-2" value="Szállodák lekérése" style="rounded=0;whiteSpace=wrap;html=1;rotation=-90;" parent="1" vertex="1">
          <mxGeometry x="370" y="200" width="150" height="50" as="geometry" />
        </mxCell>
        <mxCell id="v_gJ_FAsSPa6hFGW54se-3" value="Menetrendek lekérése" style="rounded=0;whiteSpace=wrap;html=1;rotation=-90;" parent="1" vertex="1">
          <mxGeometry x="470" y="200" width="150" height="50" as="geometry" />
        </mxCell>
        <mxCell id="5r-ikSJVYHAix577RQcs-1" value="Új járat hozzáadása" style="rounded=0;whiteSpace=wrap;html=1;rotation=-90;" parent="1" vertex="1">
          <mxGeometry x="520" y="200" width="150" height="50" as="geometry" />
        </mxCell>
        <mxCell id="V4SnsMzD-pdFK44ESWj3-1" value="Járat adatok módosítása" style="rounded=0;whiteSpace=wrap;html=1;rotation=-90;" parent="1" vertex="1">
          <mxGeometry x="570" y="200" width="150" height="50" as="geometry" />
        </mxCell>
        <mxCell id="bDuWufn9kkl-iZuIBAko-1" value="Járat törlése" style="rounded=0;whiteSpace=wrap;html=1;rotation=-90;" parent="1" vertex="1">
          <mxGeometry x="620" y="200" width="150" height="50" as="geometry" />
        </mxCell>
        <mxCell id="bDuWufn9kkl-iZuIBAko-2" value="Új szálloda hozzáadása" style="rounded=0;whiteSpace=wrap;html=1;rotation=-90;" parent="1" vertex="1">
          <mxGeometry x="670" y="200" width="150" height="50" as="geometry" />
        </mxCell>
        <mxCell id="bDuWufn9kkl-iZuIBAko-3" value="Szálloda adatok módosítása" style="rounded=0;whiteSpace=wrap;html=1;rotation=-90;" parent="1" vertex="1">
          <mxGeometry x="720" y="200" width="150" height="50" as="geometry" />
        </mxCell>
        <mxCell id="bDuWufn9kkl-iZuIBAko-4" value="Szálloda törlése" style="rounded=0;whiteSpace=wrap;html=1;rotation=-90;" parent="1" vertex="1">
          <mxGeometry x="770" y="200" width="150" height="50" as="geometry" />
        </mxCell>
        <mxCell id="bDuWufn9kkl-iZuIBAko-5" value="Utazás változtatása" style="rounded=0;whiteSpace=wrap;html=1;rotation=-90;" parent="1" vertex="1">
          <mxGeometry x="820" y="200" width="150" height="50" as="geometry" />
        </mxCell>
        <mxCell id="bDuWufn9kkl-iZuIBAko-6" value="Utazás törlése" style="rounded=0;whiteSpace=wrap;html=1;rotation=-90;" parent="1" vertex="1">
          <mxGeometry x="870" y="200" width="150" height="50" as="geometry" />
        </mxCell>
        <mxCell id="bDuWufn9kkl-iZuIBAko-7" value="Felhasználói adatok módosítása" style="rounded=0;whiteSpace=wrap;html=1;rotation=-90;" parent="1" vertex="1">
          <mxGeometry x="920" y="200" width="150" height="50" as="geometry" />
        </mxCell>
        <mxCell id="f1DWVDb-Rg17XBz0TLX--1" value="Új biztosítás hozzáadása" style="rounded=0;whiteSpace=wrap;html=1;rotation=-90;" parent="1" vertex="1">
          <mxGeometry x="970" y="200" width="150" height="50" as="geometry" />
        </mxCell>
        <mxCell id="f1DWVDb-Rg17XBz0TLX--2" value="Biztosítás módosítása" style="rounded=0;whiteSpace=wrap;html=1;rotation=-90;" parent="1" vertex="1">
          <mxGeometry x="1020" y="200" width="150" height="50" as="geometry" />
        </mxCell>
        <mxCell id="f1DWVDb-Rg17XBz0TLX--3" value="Biztosítás törlése" style="rounded=0;whiteSpace=wrap;html=1;rotation=-90;" parent="1" vertex="1">
          <mxGeometry x="1070" y="200" width="150" height="50" as="geometry" />
        </mxCell>
        <mxCell id="f1DWVDb-Rg17XBz0TLX--4" value="X" style="rounded=0;whiteSpace=wrap;html=1;" parent="1" vertex="1">
          <mxGeometry x="220" y="300" width="50" height="40" as="geometry" />
        </mxCell>
        <mxCell id="f1DWVDb-Rg17XBz0TLX--5" value="" style="rounded=0;whiteSpace=wrap;html=1;" parent="1" vertex="1">
          <mxGeometry x="220" y="340" width="50" height="40" as="geometry" />
        </mxCell>
        <mxCell id="f1DWVDb-Rg17XBz0TLX--6" value="" style="rounded=0;whiteSpace=wrap;html=1;" parent="1" vertex="1">
          <mxGeometry x="220" y="380" width="50" height="40" as="geometry" />
        </mxCell>
        <mxCell id="f1DWVDb-Rg17XBz0TLX--7" value="" style="rounded=0;whiteSpace=wrap;html=1;" parent="1" vertex="1">
          <mxGeometry x="270" y="300" width="50" height="40" as="geometry" />
        </mxCell>
        <mxCell id="f1DWVDb-Rg17XBz0TLX--8" value="X" style="rounded=0;whiteSpace=wrap;html=1;" parent="1" vertex="1">
          <mxGeometry x="270" y="340" width="50" height="40" as="geometry" />
        </mxCell>
        <mxCell id="f1DWVDb-Rg17XBz0TLX--9" value="X" style="rounded=0;whiteSpace=wrap;html=1;" parent="1" vertex="1">
          <mxGeometry x="270" y="380" width="50" height="40" as="geometry" />
        </mxCell>
        <mxCell id="f1DWVDb-Rg17XBz0TLX--10" value="" style="rounded=0;whiteSpace=wrap;html=1;" parent="1" vertex="1">
          <mxGeometry x="320" y="300" width="50" height="40" as="geometry" />
        </mxCell>
        <mxCell id="f1DWVDb-Rg17XBz0TLX--11" value="X" style="rounded=0;whiteSpace=wrap;html=1;" parent="1" vertex="1">
          <mxGeometry x="320" y="340" width="50" height="40" as="geometry" />
        </mxCell>
        <mxCell id="f1DWVDb-Rg17XBz0TLX--12" value="" style="rounded=0;whiteSpace=wrap;html=1;" parent="1" vertex="1">
          <mxGeometry x="320" y="380" width="50" height="40" as="geometry" />
        </mxCell>
        <mxCell id="f1DWVDb-Rg17XBz0TLX--13" value="" style="rounded=0;whiteSpace=wrap;html=1;" parent="1" vertex="1">
          <mxGeometry x="370" y="300" width="50" height="40" as="geometry" />
        </mxCell>
        <mxCell id="f1DWVDb-Rg17XBz0TLX--14" value="X" style="rounded=0;whiteSpace=wrap;html=1;" parent="1" vertex="1">
          <mxGeometry x="370" y="340" width="50" height="40" as="geometry" />
        </mxCell>
        <mxCell id="f1DWVDb-Rg17XBz0TLX--15" value="X" style="rounded=0;whiteSpace=wrap;html=1;" parent="1" vertex="1">
          <mxGeometry x="370" y="380" width="50" height="40" as="geometry" />
        </mxCell>
        <mxCell id="f1DWVDb-Rg17XBz0TLX--16" value="" style="rounded=0;whiteSpace=wrap;html=1;" parent="1" vertex="1">
          <mxGeometry x="420" y="300" width="50" height="40" as="geometry" />
        </mxCell>
        <mxCell id="f1DWVDb-Rg17XBz0TLX--17" value="X" style="rounded=0;whiteSpace=wrap;html=1;" parent="1" vertex="1">
          <mxGeometry x="420" y="340" width="50" height="40" as="geometry" />
        </mxCell>
        <mxCell id="f1DWVDb-Rg17XBz0TLX--18" value="X" style="rounded=0;whiteSpace=wrap;html=1;" parent="1" vertex="1">
          <mxGeometry x="420" y="380" width="50" height="40" as="geometry" />
        </mxCell>
        <mxCell id="f1DWVDb-Rg17XBz0TLX--19" value="" style="rounded=0;whiteSpace=wrap;html=1;" parent="1" vertex="1">
          <mxGeometry x="470" y="300" width="50" height="40" as="geometry" />
        </mxCell>
        <mxCell id="f1DWVDb-Rg17XBz0TLX--20" value="X" style="rounded=0;whiteSpace=wrap;html=1;" parent="1" vertex="1">
          <mxGeometry x="470" y="340" width="50" height="40" as="geometry" />
        </mxCell>
        <mxCell id="f1DWVDb-Rg17XBz0TLX--21" value="X" style="rounded=0;whiteSpace=wrap;html=1;" parent="1" vertex="1">
          <mxGeometry x="470" y="380" width="50" height="40" as="geometry" />
        </mxCell>
        <mxCell id="f1DWVDb-Rg17XBz0TLX--22" value="" style="rounded=0;whiteSpace=wrap;html=1;" parent="1" vertex="1">
          <mxGeometry x="520" y="300" width="50" height="40" as="geometry" />
        </mxCell>
        <mxCell id="f1DWVDb-Rg17XBz0TLX--23" value="X" style="rounded=0;whiteSpace=wrap;html=1;" parent="1" vertex="1">
          <mxGeometry x="520" y="340" width="50" height="40" as="geometry" />
        </mxCell>
        <mxCell id="f1DWVDb-Rg17XBz0TLX--24" value="X" style="rounded=0;whiteSpace=wrap;html=1;" parent="1" vertex="1">
          <mxGeometry x="520" y="380" width="50" height="40" as="geometry" />
        </mxCell>
        <mxCell id="f1DWVDb-Rg17XBz0TLX--25" value="" style="rounded=0;whiteSpace=wrap;html=1;" parent="1" vertex="1">
          <mxGeometry x="570" y="300" width="50" height="40" as="geometry" />
        </mxCell>
        <mxCell id="f1DWVDb-Rg17XBz0TLX--26" value="" style="rounded=0;whiteSpace=wrap;html=1;" parent="1" vertex="1">
          <mxGeometry x="570" y="340" width="50" height="40" as="geometry" />
        </mxCell>
        <mxCell id="f1DWVDb-Rg17XBz0TLX--27" value="X" style="rounded=0;whiteSpace=wrap;html=1;" parent="1" vertex="1">
          <mxGeometry x="570" y="380" width="50" height="40" as="geometry" />
        </mxCell>
        <mxCell id="f1DWVDb-Rg17XBz0TLX--28" value="" style="rounded=0;whiteSpace=wrap;html=1;" parent="1" vertex="1">
          <mxGeometry x="620" y="300" width="50" height="40" as="geometry" />
        </mxCell>
        <mxCell id="f1DWVDb-Rg17XBz0TLX--29" value="" style="rounded=0;whiteSpace=wrap;html=1;" parent="1" vertex="1">
          <mxGeometry x="620" y="340" width="50" height="40" as="geometry" />
        </mxCell>
        <mxCell id="f1DWVDb-Rg17XBz0TLX--30" value="X" style="rounded=0;whiteSpace=wrap;html=1;" parent="1" vertex="1">
          <mxGeometry x="620" y="380" width="50" height="40" as="geometry" />
        </mxCell>
        <mxCell id="f1DWVDb-Rg17XBz0TLX--31" value="" style="rounded=0;whiteSpace=wrap;html=1;" parent="1" vertex="1">
          <mxGeometry x="670" y="300" width="50" height="40" as="geometry" />
        </mxCell>
        <mxCell id="f1DWVDb-Rg17XBz0TLX--32" value="" style="rounded=0;whiteSpace=wrap;html=1;" parent="1" vertex="1">
          <mxGeometry x="670" y="340" width="50" height="40" as="geometry" />
        </mxCell>
        <mxCell id="f1DWVDb-Rg17XBz0TLX--33" value="X" style="rounded=0;whiteSpace=wrap;html=1;" parent="1" vertex="1">
          <mxGeometry x="670" y="380" width="50" height="40" as="geometry" />
        </mxCell>
        <mxCell id="f1DWVDb-Rg17XBz0TLX--34" value="" style="rounded=0;whiteSpace=wrap;html=1;" parent="1" vertex="1">
          <mxGeometry x="720" y="300" width="50" height="40" as="geometry" />
        </mxCell>
        <mxCell id="f1DWVDb-Rg17XBz0TLX--35" value="" style="rounded=0;whiteSpace=wrap;html=1;" parent="1" vertex="1">
          <mxGeometry x="720" y="340" width="50" height="40" as="geometry" />
        </mxCell>
        <mxCell id="f1DWVDb-Rg17XBz0TLX--36" value="X" style="rounded=0;whiteSpace=wrap;html=1;" parent="1" vertex="1">
          <mxGeometry x="720" y="380" width="50" height="40" as="geometry" />
        </mxCell>
        <mxCell id="f1DWVDb-Rg17XBz0TLX--37" value="" style="rounded=0;whiteSpace=wrap;html=1;" parent="1" vertex="1">
          <mxGeometry x="770" y="300" width="50" height="40" as="geometry" />
        </mxCell>
        <mxCell id="f1DWVDb-Rg17XBz0TLX--38" value="" style="rounded=0;whiteSpace=wrap;html=1;" parent="1" vertex="1">
          <mxGeometry x="770" y="340" width="50" height="40" as="geometry" />
        </mxCell>
        <mxCell id="f1DWVDb-Rg17XBz0TLX--39" value="X" style="rounded=0;whiteSpace=wrap;html=1;" parent="1" vertex="1">
          <mxGeometry x="770" y="380" width="50" height="40" as="geometry" />
        </mxCell>
        <mxCell id="f1DWVDb-Rg17XBz0TLX--40" value="" style="rounded=0;whiteSpace=wrap;html=1;" parent="1" vertex="1">
          <mxGeometry x="820" y="300" width="50" height="40" as="geometry" />
        </mxCell>
        <mxCell id="f1DWVDb-Rg17XBz0TLX--41" value="" style="rounded=0;whiteSpace=wrap;html=1;" parent="1" vertex="1">
          <mxGeometry x="820" y="340" width="50" height="40" as="geometry" />
        </mxCell>
        <mxCell id="f1DWVDb-Rg17XBz0TLX--42" value="X" style="rounded=0;whiteSpace=wrap;html=1;" parent="1" vertex="1">
          <mxGeometry x="820" y="380" width="50" height="40" as="geometry" />
        </mxCell>
        <mxCell id="f1DWVDb-Rg17XBz0TLX--43" value="" style="rounded=0;whiteSpace=wrap;html=1;" parent="1" vertex="1">
          <mxGeometry x="870" y="300" width="50" height="40" as="geometry" />
        </mxCell>
        <mxCell id="f1DWVDb-Rg17XBz0TLX--44" value="X" style="rounded=0;whiteSpace=wrap;html=1;" parent="1" vertex="1">
          <mxGeometry x="870" y="340" width="50" height="40" as="geometry" />
        </mxCell>
        <mxCell id="f1DWVDb-Rg17XBz0TLX--45" value="X" style="rounded=0;whiteSpace=wrap;html=1;" parent="1" vertex="1">
          <mxGeometry x="870" y="380" width="50" height="40" as="geometry" />
        </mxCell>
        <mxCell id="f1DWVDb-Rg17XBz0TLX--46" value="" style="rounded=0;whiteSpace=wrap;html=1;" parent="1" vertex="1">
          <mxGeometry x="920" y="300" width="50" height="40" as="geometry" />
        </mxCell>
        <mxCell id="f1DWVDb-Rg17XBz0TLX--47" value="X" style="rounded=0;whiteSpace=wrap;html=1;" parent="1" vertex="1">
          <mxGeometry x="920" y="340" width="50" height="40" as="geometry" />
        </mxCell>
        <mxCell id="f1DWVDb-Rg17XBz0TLX--48" value="X" style="rounded=0;whiteSpace=wrap;html=1;" parent="1" vertex="1">
          <mxGeometry x="920" y="380" width="50" height="40" as="geometry" />
        </mxCell>
        <mxCell id="f1DWVDb-Rg17XBz0TLX--49" value="" style="rounded=0;whiteSpace=wrap;html=1;" parent="1" vertex="1">
          <mxGeometry x="970" y="300" width="50" height="40" as="geometry" />
        </mxCell>
        <mxCell id="f1DWVDb-Rg17XBz0TLX--50" value="X" style="rounded=0;whiteSpace=wrap;html=1;" parent="1" vertex="1">
          <mxGeometry x="970" y="340" width="50" height="40" as="geometry" />
        </mxCell>
        <mxCell id="f1DWVDb-Rg17XBz0TLX--51" value="X" style="rounded=0;whiteSpace=wrap;html=1;" parent="1" vertex="1">
          <mxGeometry x="970" y="380" width="50" height="40" as="geometry" />
        </mxCell>
        <mxCell id="f1DWVDb-Rg17XBz0TLX--52" value="" style="rounded=0;whiteSpace=wrap;html=1;" parent="1" vertex="1">
          <mxGeometry x="1020" y="300" width="50" height="40" as="geometry" />
        </mxCell>
        <mxCell id="f1DWVDb-Rg17XBz0TLX--53" value="" style="rounded=0;whiteSpace=wrap;html=1;" parent="1" vertex="1">
          <mxGeometry x="1020" y="340" width="50" height="40" as="geometry" />
        </mxCell>
        <mxCell id="f1DWVDb-Rg17XBz0TLX--54" value="X" style="rounded=0;whiteSpace=wrap;html=1;" parent="1" vertex="1">
          <mxGeometry x="1020" y="380" width="50" height="40" as="geometry" />
        </mxCell>
        <mxCell id="f1DWVDb-Rg17XBz0TLX--55" value="" style="rounded=0;whiteSpace=wrap;html=1;" parent="1" vertex="1">
          <mxGeometry x="1070" y="300" width="50" height="40" as="geometry" />
        </mxCell>
        <mxCell id="f1DWVDb-Rg17XBz0TLX--56" value="" style="rounded=0;whiteSpace=wrap;html=1;" parent="1" vertex="1">
          <mxGeometry x="1070" y="340" width="50" height="40" as="geometry" />
        </mxCell>
        <mxCell id="f1DWVDb-Rg17XBz0TLX--57" value="X" style="rounded=0;whiteSpace=wrap;html=1;" parent="1" vertex="1">
          <mxGeometry x="1070" y="380" width="50" height="40" as="geometry" />
        </mxCell>
        <mxCell id="f1DWVDb-Rg17XBz0TLX--58" value="" style="rounded=0;whiteSpace=wrap;html=1;" parent="1" vertex="1">
          <mxGeometry x="1120" y="300" width="50" height="40" as="geometry" />
        </mxCell>
        <mxCell id="f1DWVDb-Rg17XBz0TLX--59" value="" style="rounded=0;whiteSpace=wrap;html=1;" parent="1" vertex="1">
          <mxGeometry x="1120" y="340" width="50" height="40" as="geometry" />
        </mxCell>
        <mxCell id="f1DWVDb-Rg17XBz0TLX--60" value="X" style="rounded=0;whiteSpace=wrap;html=1;" parent="1" vertex="1">
          <mxGeometry x="1120" y="380" width="50" height="40" as="geometry" />
        </mxCell>
      </root>
    </mxGraphModel>
  </diagram>
  <diagram id="ANlH4vCxAjEJqRPtwa23" name="Képernyőtervek">
    <mxGraphModel dx="472" dy="773" grid="1" gridSize="10" guides="1" tooltips="1" connect="1" arrows="1" fold="1" page="1" pageScale="1" pageWidth="827" pageHeight="1169" math="0" shadow="0">
      <root>
        <mxCell id="0" />
        <mxCell id="1" parent="0" />
        <mxCell id="JAf3MgvVighPuXI3qqmY-1" value="Reptér&lt;span style=&quot;white-space: pre;&quot;&gt;&#x9;&lt;/span&gt;Főoldal&lt;span style=&quot;white-space: pre;&quot;&gt;&#x9;&lt;/span&gt;Légitársaságok és járatok&lt;span style=&quot;white-space: pre;&quot;&gt;&#x9;&lt;/span&gt;Menetrend&lt;span style=&quot;white-space: pre;&quot;&gt;&#x9;&lt;/span&gt;Utazások&lt;span style=&quot;white-space: pre;&quot;&gt;&#x9;&lt;/span&gt;Kapcsolat&lt;span style=&quot;white-space: pre;&quot;&gt;&#x9;&lt;/span&gt;Keresés&lt;span style=&quot;white-space: pre;&quot;&gt;&#x9;&lt;/span&gt;Belépés" style="rounded=0;whiteSpace=wrap;html=1;" parent="1" vertex="1">
          <mxGeometry x="20" y="50" width="690" height="50" as="geometry" />
        </mxCell>
        <mxCell id="JAf3MgvVighPuXI3qqmY-2" value="" style="rounded=0;whiteSpace=wrap;html=1;" parent="1" vertex="1">
          <mxGeometry x="20" y="100" width="690" height="280" as="geometry" />
        </mxCell>
        <mxCell id="JAf3MgvVighPuXI3qqmY-3" value="keresés..." style="rounded=0;whiteSpace=wrap;html=1;" parent="1" vertex="1">
          <mxGeometry x="120" y="150" width="410" height="30" as="geometry" />
        </mxCell>
        <mxCell id="JAf3MgvVighPuXI3qqmY-4" value="Keresés" style="rounded=0;whiteSpace=wrap;html=1;" parent="1" vertex="1">
          <mxGeometry x="530" y="150" width="70" height="30" as="geometry" />
        </mxCell>
        <mxCell id="JAf3MgvVighPuXI3qqmY-5" value="Népszerű járatok" style="text;html=1;strokeColor=none;fillColor=none;align=center;verticalAlign=middle;whiteSpace=wrap;rounded=0;" parent="1" vertex="1">
          <mxGeometry x="60" y="220" width="110" height="30" as="geometry" />
        </mxCell>
        <mxCell id="JAf3MgvVighPuXI3qqmY-17" value="Budapest - Berlin&lt;br&gt;2024.04.16.&lt;br&gt;Szabad helyek: 5&lt;br&gt;Ár: 140 566 Ft" style="rounded=0;whiteSpace=wrap;html=1;" parent="1" vertex="1">
          <mxGeometry x="480" y="270" width="180" height="60" as="geometry" />
        </mxCell>
        <mxCell id="JAf3MgvVighPuXI3qqmY-18" value="Budapest - Berlin&lt;br&gt;2024.04.16.&lt;br&gt;Szabad helyek: 5&lt;br&gt;Ár: 140 566 Ft" style="rounded=0;whiteSpace=wrap;html=1;" parent="1" vertex="1">
          <mxGeometry x="60" y="270" width="180" height="60" as="geometry" />
        </mxCell>
        <mxCell id="JAf3MgvVighPuXI3qqmY-19" value="Budapest - Berlin&lt;br&gt;2024.04.16.&lt;br&gt;Szabad helyek: 5&lt;br&gt;Ár: 140 566 Ft" style="rounded=0;whiteSpace=wrap;html=1;" parent="1" vertex="1">
          <mxGeometry x="270" y="270" width="180" height="60" as="geometry" />
        </mxCell>
        <mxCell id="JAf3MgvVighPuXI3qqmY-20" value="Reptér&lt;span style=&quot;white-space: pre;&quot;&gt;&#x9;&lt;/span&gt;Főoldal&lt;span style=&quot;white-space: pre;&quot;&gt;&#x9;&lt;/span&gt;Légitársaságok és járatok&lt;span style=&quot;white-space: pre;&quot;&gt;&#x9;&lt;/span&gt;Menetrend&lt;span style=&quot;white-space: pre;&quot;&gt;&#x9;&lt;/span&gt;Utazások&lt;span style=&quot;white-space: pre;&quot;&gt;&#x9;&lt;/span&gt;Kapcsolat&lt;span style=&quot;white-space: pre;&quot;&gt;&#x9;&lt;/span&gt;Keresés&lt;span style=&quot;white-space: pre;&quot;&gt;&#x9;Profil&lt;/span&gt;" style="rounded=0;whiteSpace=wrap;html=1;" parent="1" vertex="1">
          <mxGeometry x="20" y="420" width="690" height="50" as="geometry" />
        </mxCell>
        <mxCell id="JAf3MgvVighPuXI3qqmY-21" value="" style="rounded=0;whiteSpace=wrap;html=1;" parent="1" vertex="1">
          <mxGeometry x="20" y="470" width="690" height="380" as="geometry" />
        </mxCell>
        <mxCell id="JAf3MgvVighPuXI3qqmY-22" value="keresés..." style="rounded=0;whiteSpace=wrap;html=1;" parent="1" vertex="1">
          <mxGeometry x="120" y="520" width="410" height="30" as="geometry" />
        </mxCell>
        <mxCell id="JAf3MgvVighPuXI3qqmY-23" value="Keresés" style="rounded=0;whiteSpace=wrap;html=1;" parent="1" vertex="1">
          <mxGeometry x="530" y="520" width="70" height="30" as="geometry" />
        </mxCell>
        <mxCell id="JAf3MgvVighPuXI3qqmY-26" value="Honnan&lt;span style=&quot;white-space: pre;&quot;&gt;&#x9;Hova&lt;span style=&quot;white-space: pre;&quot;&gt;&#x9;&lt;/span&gt;Indulás&lt;span style=&quot;white-space: pre;&quot;&gt;&#x9;&lt;/span&gt;Érkezés&lt;br/&gt;Leggyorsabb&lt;span style=&quot;white-space: pre;&quot;&gt;&#x9;&lt;/span&gt;Minimum átszállás&lt;br/&gt;Aznapi átszállás&lt;br/&gt;Keresés&lt;br&gt;&lt;/span&gt;" style="rounded=0;whiteSpace=wrap;html=1;" parent="1" vertex="1">
          <mxGeometry x="120" y="580" width="480" height="90" as="geometry" />
        </mxCell>
        <mxCell id="JAf3MgvVighPuXI3qqmY-28" value="Találatok" style="text;html=1;strokeColor=none;fillColor=none;align=center;verticalAlign=middle;whiteSpace=wrap;rounded=0;" parent="1" vertex="1">
          <mxGeometry x="65" y="700" width="110" height="30" as="geometry" />
        </mxCell>
        <mxCell id="JAf3MgvVighPuXI3qqmY-29" value="Budapest - Berlin&lt;br&gt;2024.04.16.&lt;br&gt;Szabad helyek: 5&lt;br&gt;Ár: 140 566 Ft" style="rounded=0;whiteSpace=wrap;html=1;" parent="1" vertex="1">
          <mxGeometry x="485" y="750" width="180" height="60" as="geometry" />
        </mxCell>
        <mxCell id="JAf3MgvVighPuXI3qqmY-30" value="Budapest - Berlin&lt;br&gt;2024.04.16.&lt;br&gt;Szabad helyek: 5&lt;br&gt;Ár: 140 566 Ft" style="rounded=0;whiteSpace=wrap;html=1;" parent="1" vertex="1">
          <mxGeometry x="65" y="750" width="180" height="60" as="geometry" />
        </mxCell>
        <mxCell id="JAf3MgvVighPuXI3qqmY-31" value="Budapest - Berlin&lt;br&gt;2024.04.16.&lt;br&gt;Szabad helyek: 5&lt;br&gt;Ár: 140 566 Ft" style="rounded=0;whiteSpace=wrap;html=1;" parent="1" vertex="1">
          <mxGeometry x="275" y="750" width="180" height="60" as="geometry" />
        </mxCell>
        <mxCell id="JAf3MgvVighPuXI3qqmY-32" value="Reptér&lt;span style=&quot;white-space: pre;&quot;&gt;&#x9;&lt;/span&gt;Főoldal&lt;span style=&quot;white-space: pre;&quot;&gt;&#x9;&lt;/span&gt;Légitársaságok és járatok&lt;span style=&quot;white-space: pre;&quot;&gt;&#x9;&lt;/span&gt;Menetrend&lt;span style=&quot;white-space: pre;&quot;&gt;&#x9;&lt;/span&gt;Utazások&lt;span style=&quot;white-space: pre;&quot;&gt;&#x9;&lt;/span&gt;Kapcsolat&lt;span style=&quot;white-space: pre;&quot;&gt;&#x9;&lt;/span&gt;Keresés&lt;span style=&quot;white-space: pre;&quot;&gt;&#x9;&lt;/span&gt;Belépés" style="rounded=0;whiteSpace=wrap;html=1;" parent="1" vertex="1">
          <mxGeometry x="20" y="910" width="690" height="50" as="geometry" />
        </mxCell>
        <mxCell id="JAf3MgvVighPuXI3qqmY-33" value="" style="rounded=0;whiteSpace=wrap;html=1;" parent="1" vertex="1">
          <mxGeometry x="20" y="960" width="690" height="150" as="geometry" />
        </mxCell>
        <mxCell id="JAf3MgvVighPuXI3qqmY-41" value="email" style="rounded=0;whiteSpace=wrap;html=1;" parent="1" vertex="1">
          <mxGeometry x="305" y="990" width="120" height="20" as="geometry" />
        </mxCell>
        <mxCell id="JAf3MgvVighPuXI3qqmY-42" value="belépési kód kérése" style="rounded=0;whiteSpace=wrap;html=1;" parent="1" vertex="1">
          <mxGeometry x="305" y="1020" width="120" height="20" as="geometry" />
        </mxCell>
        <mxCell id="JAf3MgvVighPuXI3qqmY-43" value="Regisztráció" style="text;html=1;strokeColor=none;fillColor=none;align=center;verticalAlign=middle;whiteSpace=wrap;rounded=0;" parent="1" vertex="1">
          <mxGeometry x="330" y="1050" width="60" height="30" as="geometry" />
        </mxCell>
        <mxCell id="JAf3MgvVighPuXI3qqmY-45" value="Reptér&lt;span style=&quot;white-space: pre;&quot;&gt;&#x9;&lt;/span&gt;Főoldal&lt;span style=&quot;white-space: pre;&quot;&gt;&#x9;&lt;/span&gt;Légitársaságok és járatok&lt;span style=&quot;white-space: pre;&quot;&gt;&#x9;&lt;/span&gt;Menetrend&lt;span style=&quot;white-space: pre;&quot;&gt;&#x9;&lt;/span&gt;Utazások&lt;span style=&quot;white-space: pre;&quot;&gt;&#x9;&lt;/span&gt;Kapcsolat&lt;span style=&quot;white-space: pre;&quot;&gt;&#x9;&lt;/span&gt;Keresés&lt;span style=&quot;white-space: pre;&quot;&gt;&#x9;Profil&lt;/span&gt;" style="rounded=0;whiteSpace=wrap;html=1;" parent="1" vertex="1">
          <mxGeometry x="20" y="1169" width="690" height="50" as="geometry" />
        </mxCell>
        <mxCell id="JAf3MgvVighPuXI3qqmY-46" value="" style="rounded=0;whiteSpace=wrap;html=1;" parent="1" vertex="1">
          <mxGeometry x="20" y="1219" width="690" height="150" as="geometry" />
        </mxCell>
        <mxCell id="JAf3MgvVighPuXI3qqmY-47" value="email" style="rounded=0;whiteSpace=wrap;html=1;" parent="1" vertex="1">
          <mxGeometry x="297.5" y="1240" width="120" height="20" as="geometry" />
        </mxCell>
        <mxCell id="JAf3MgvVighPuXI3qqmY-48" value="név" style="rounded=0;whiteSpace=wrap;html=1;" parent="1" vertex="1">
          <mxGeometry x="297.5" y="1270" width="120" height="20" as="geometry" />
        </mxCell>
        <mxCell id="JAf3MgvVighPuXI3qqmY-49" value="Módosítás" style="text;html=1;strokeColor=none;fillColor=none;align=center;verticalAlign=middle;whiteSpace=wrap;rounded=0;" parent="1" vertex="1">
          <mxGeometry x="297.5" y="1300" width="60" height="30" as="geometry" />
        </mxCell>
        <mxCell id="JAf3MgvVighPuXI3qqmY-50" value="Kijelentkezés" style="text;html=1;strokeColor=none;fillColor=none;align=center;verticalAlign=middle;whiteSpace=wrap;rounded=0;" parent="1" vertex="1">
          <mxGeometry x="372.5" y="1300" width="60" height="30" as="geometry" />
        </mxCell>
        <mxCell id="P_focOdjlUWMHrFhrcjM-1" value="Reptér&lt;span style=&quot;white-space: pre;&quot;&gt;&#x9;&lt;/span&gt;Főoldal&lt;span style=&quot;white-space: pre;&quot;&gt;&#x9;&lt;/span&gt;Légitársaságok és járatok&lt;span style=&quot;white-space: pre;&quot;&gt;&#x9;&lt;/span&gt;Menetrend&lt;span style=&quot;white-space: pre;&quot;&gt;&#x9;&lt;/span&gt;Utazások&lt;span style=&quot;white-space: pre;&quot;&gt;&#x9;&lt;/span&gt;Kapcsolat&lt;span style=&quot;white-space: pre;&quot;&gt;&#x9;&lt;/span&gt;Keresés&lt;span style=&quot;white-space: pre;&quot;&gt;&#x9;Profil&lt;/span&gt;" style="rounded=0;whiteSpace=wrap;html=1;" parent="1" vertex="1">
          <mxGeometry x="20" y="1440" width="690" height="50" as="geometry" />
        </mxCell>
        <mxCell id="P_focOdjlUWMHrFhrcjM-2" value="" style="rounded=0;whiteSpace=wrap;html=1;" parent="1" vertex="1">
          <mxGeometry x="20" y="1490" width="690" height="380" as="geometry" />
        </mxCell>
        <mxCell id="P_focOdjlUWMHrFhrcjM-6" value="Lufthansa" style="text;html=1;strokeColor=none;fillColor=none;align=center;verticalAlign=middle;whiteSpace=wrap;rounded=0;" parent="1" vertex="1">
          <mxGeometry x="65" y="1520" width="110" height="30" as="geometry" />
        </mxCell>
        <mxCell id="P_focOdjlUWMHrFhrcjM-7" value="Budapest - Berlin&lt;br&gt;2024.04.16.&lt;br&gt;Szabad helyek: 5&lt;br&gt;Ár: 140 566 Ft" style="rounded=0;whiteSpace=wrap;html=1;" parent="1" vertex="1">
          <mxGeometry x="485" y="1560" width="180" height="60" as="geometry" />
        </mxCell>
        <mxCell id="P_focOdjlUWMHrFhrcjM-8" value="Budapest - Berlin&lt;br&gt;2024.04.16.&lt;br&gt;Szabad helyek: 5&lt;br&gt;Ár: 140 566 Ft" style="rounded=0;whiteSpace=wrap;html=1;" parent="1" vertex="1">
          <mxGeometry x="65" y="1560" width="180" height="60" as="geometry" />
        </mxCell>
        <mxCell id="P_focOdjlUWMHrFhrcjM-9" value="Budapest - Berlin&lt;br&gt;2024.04.16.&lt;br&gt;Szabad helyek: 5&lt;br&gt;Ár: 140 566 Ft" style="rounded=0;whiteSpace=wrap;html=1;" parent="1" vertex="1">
          <mxGeometry x="275" y="1560" width="180" height="60" as="geometry" />
        </mxCell>
        <mxCell id="P_focOdjlUWMHrFhrcjM-10" value="WizzAir" style="text;html=1;strokeColor=none;fillColor=none;align=center;verticalAlign=middle;whiteSpace=wrap;rounded=0;" parent="1" vertex="1">
          <mxGeometry x="65" y="1640" width="110" height="30" as="geometry" />
        </mxCell>
        <mxCell id="P_focOdjlUWMHrFhrcjM-11" value="Budapest - Berlin&lt;br&gt;2024.04.16.&lt;br&gt;Szabad helyek: 5&lt;br&gt;Ár: 140 566 Ft" style="rounded=0;whiteSpace=wrap;html=1;" parent="1" vertex="1">
          <mxGeometry x="485" y="1680" width="180" height="60" as="geometry" />
        </mxCell>
        <mxCell id="P_focOdjlUWMHrFhrcjM-12" value="Budapest - Berlin&lt;br&gt;2024.04.16.&lt;br&gt;Szabad helyek: 5&lt;br&gt;Ár: 140 566 Ft" style="rounded=0;whiteSpace=wrap;html=1;" parent="1" vertex="1">
          <mxGeometry x="65" y="1680" width="180" height="60" as="geometry" />
        </mxCell>
        <mxCell id="P_focOdjlUWMHrFhrcjM-13" value="Budapest - Berlin&lt;br&gt;2024.04.16.&lt;br&gt;Szabad helyek: 5&lt;br&gt;Ár: 140 566 Ft" style="rounded=0;whiteSpace=wrap;html=1;" parent="1" vertex="1">
          <mxGeometry x="275" y="1680" width="180" height="60" as="geometry" />
        </mxCell>
        <mxCell id="P_focOdjlUWMHrFhrcjM-14" value="&lt;b&gt;&lt;font style=&quot;font-size: 22px;&quot;&gt;Főoldal&lt;/font&gt;&lt;/b&gt;" style="text;html=1;strokeColor=none;fillColor=none;align=center;verticalAlign=middle;whiteSpace=wrap;rounded=0;" parent="1" vertex="1">
          <mxGeometry x="20" y="10" width="60" height="30" as="geometry" />
        </mxCell>
        <mxCell id="P_focOdjlUWMHrFhrcjM-15" value="&lt;font size=&quot;1&quot;&gt;&lt;b style=&quot;font-size: 22px;&quot;&gt;Keresés&lt;/b&gt;&lt;/font&gt;" style="text;html=1;strokeColor=none;fillColor=none;align=center;verticalAlign=middle;whiteSpace=wrap;rounded=0;" parent="1" vertex="1">
          <mxGeometry x="20" y="390" width="60" height="30" as="geometry" />
        </mxCell>
        <mxCell id="P_focOdjlUWMHrFhrcjM-16" value="&lt;font size=&quot;1&quot;&gt;&lt;b style=&quot;font-size: 22px;&quot;&gt;Belépés&lt;/b&gt;&lt;/font&gt;" style="text;html=1;strokeColor=none;fillColor=none;align=center;verticalAlign=middle;whiteSpace=wrap;rounded=0;" parent="1" vertex="1">
          <mxGeometry x="20" y="870" width="60" height="30" as="geometry" />
        </mxCell>
        <mxCell id="P_focOdjlUWMHrFhrcjM-17" value="&lt;font size=&quot;1&quot;&gt;&lt;b style=&quot;font-size: 22px;&quot;&gt;Adatmódosítás&lt;/b&gt;&lt;/font&gt;" style="text;html=1;strokeColor=none;fillColor=none;align=center;verticalAlign=middle;whiteSpace=wrap;rounded=0;" parent="1" vertex="1">
          <mxGeometry x="60" y="1139" width="60" height="30" as="geometry" />
        </mxCell>
        <mxCell id="P_focOdjlUWMHrFhrcjM-19" value="&lt;font size=&quot;1&quot;&gt;&lt;b style=&quot;font-size: 22px;&quot;&gt;Menetrendek&lt;/b&gt;&lt;/font&gt;" style="text;html=1;strokeColor=none;fillColor=none;align=center;verticalAlign=middle;whiteSpace=wrap;rounded=0;" parent="1" vertex="1">
          <mxGeometry x="50" y="1410" width="60" height="30" as="geometry" />
        </mxCell>
      </root>
    </mxGraphModel>
  </diagram>
  <diagram id="iA-4VVNFz7UsAsNUaMW4" name="E-K Diagram">
    <mxGraphModel dx="2868" dy="1548" grid="1" gridSize="10" guides="1" tooltips="1" connect="1" arrows="1" fold="1" page="1" pageScale="1" pageWidth="850" pageHeight="1100" math="0" shadow="0">
      <root>
        <mxCell id="0" />
        <mxCell id="1" parent="0" />
        <mxCell id="Ztba5tuW2JcjVKx31SA5-19" value="" style="edgeStyle=orthogonalEdgeStyle;rounded=0;orthogonalLoop=1;jettySize=auto;html=1;endArrow=none;endFill=0;" parent="1" source="Ztba5tuW2JcjVKx31SA5-1" target="Ztba5tuW2JcjVKx31SA5-5" edge="1">
          <mxGeometry relative="1" as="geometry">
            <Array as="points">
              <mxPoint x="250" y="330" />
            </Array>
          </mxGeometry>
        </mxCell>
        <mxCell id="Ztba5tuW2JcjVKx31SA5-1" value="Lejárat" style="ellipse;whiteSpace=wrap;html=1;align=center;" parent="1" vertex="1">
          <mxGeometry x="110" y="190" width="100" height="40" as="geometry" />
        </mxCell>
        <mxCell id="Ztba5tuW2JcjVKx31SA5-18" value="" style="edgeStyle=orthogonalEdgeStyle;rounded=0;orthogonalLoop=1;jettySize=auto;html=1;endArrow=none;endFill=0;" parent="1" source="Ztba5tuW2JcjVKx31SA5-2" target="Ztba5tuW2JcjVKx31SA5-5" edge="1">
          <mxGeometry relative="1" as="geometry" />
        </mxCell>
        <mxCell id="Ztba5tuW2JcjVKx31SA5-2" value="Biztosítás azonosíró" style="ellipse;whiteSpace=wrap;html=1;align=center;fontStyle=4;" parent="1" vertex="1">
          <mxGeometry x="270" y="190" width="100" height="40" as="geometry" />
        </mxCell>
        <mxCell id="Ztba5tuW2JcjVKx31SA5-3" value="&lt;div&gt;Értéke&lt;/div&gt;" style="ellipse;whiteSpace=wrap;html=1;align=center;fontStyle=0;" parent="1" vertex="1">
          <mxGeometry x="390" y="190" width="100" height="40" as="geometry" />
        </mxCell>
        <mxCell id="Ztba5tuW2JcjVKx31SA5-4" value="Típusa" style="ellipse;whiteSpace=wrap;html=1;align=center;fontStyle=0;" parent="1" vertex="1">
          <mxGeometry x="70" y="330" width="100" height="40" as="geometry" />
        </mxCell>
        <mxCell id="Ztba5tuW2JcjVKx31SA5-17" value="" style="edgeStyle=orthogonalEdgeStyle;rounded=0;orthogonalLoop=1;jettySize=auto;html=1;endArrow=none;endFill=0;" parent="1" source="Ztba5tuW2JcjVKx31SA5-5" target="Ztba5tuW2JcjVKx31SA5-12" edge="1">
          <mxGeometry relative="1" as="geometry" />
        </mxCell>
        <mxCell id="Ztba5tuW2JcjVKx31SA5-5" value="Biztosítás" style="whiteSpace=wrap;html=1;align=center;" parent="1" vertex="1">
          <mxGeometry x="270" y="330" width="100" height="40" as="geometry" />
        </mxCell>
        <mxCell id="Ztba5tuW2JcjVKx31SA5-6" value="" style="edgeStyle=entityRelationEdgeStyle;fontSize=12;html=1;endArrow=none;startArrow=none;rounded=0;startFill=0;endFill=0;" parent="1" source="Ztba5tuW2JcjVKx31SA5-4" target="Ztba5tuW2JcjVKx31SA5-5" edge="1">
          <mxGeometry width="100" height="100" relative="1" as="geometry">
            <mxPoint x="190" y="450" as="sourcePoint" />
            <mxPoint x="270" y="330" as="targetPoint" />
          </mxGeometry>
        </mxCell>
        <mxCell id="Ztba5tuW2JcjVKx31SA5-11" value="" style="edgeStyle=entityRelationEdgeStyle;fontSize=12;html=1;endArrow=none;startArrow=none;rounded=0;exitX=0.5;exitY=1;exitDx=0;exitDy=0;endFill=0;startFill=0;" parent="1" source="Ztba5tuW2JcjVKx31SA5-3" target="Ztba5tuW2JcjVKx31SA5-5" edge="1">
          <mxGeometry width="100" height="100" relative="1" as="geometry">
            <mxPoint x="170" y="330" as="sourcePoint" />
            <mxPoint x="370" y="350" as="targetPoint" />
          </mxGeometry>
        </mxCell>
        <mxCell id="Ztba5tuW2JcjVKx31SA5-16" value="" style="edgeStyle=orthogonalEdgeStyle;rounded=0;orthogonalLoop=1;jettySize=auto;html=1;endArrow=classic;endFill=1;" parent="1" source="Ztba5tuW2JcjVKx31SA5-12" target="Ztba5tuW2JcjVKx31SA5-15" edge="1">
          <mxGeometry relative="1" as="geometry" />
        </mxCell>
        <mxCell id="Ztba5tuW2JcjVKx31SA5-12" value="Biztosítást köt" style="shape=rhombus;perimeter=rhombusPerimeter;whiteSpace=wrap;html=1;align=center;" parent="1" vertex="1">
          <mxGeometry x="260" y="480" width="120" height="60" as="geometry" />
        </mxCell>
        <mxCell id="Ztba5tuW2JcjVKx31SA5-31" value="" style="edgeStyle=orthogonalEdgeStyle;rounded=0;orthogonalLoop=1;jettySize=auto;html=1;endArrow=none;endFill=0;exitX=1;exitY=0;exitDx=0;exitDy=0;" parent="1" source="Ztba5tuW2JcjVKx31SA5-15" target="Ztba5tuW2JcjVKx31SA5-26" edge="1">
          <mxGeometry relative="1" as="geometry" />
        </mxCell>
        <mxCell id="Ztba5tuW2JcjVKx31SA5-15" value="Személy" style="whiteSpace=wrap;html=1;" parent="1" vertex="1">
          <mxGeometry x="260" y="620" width="120" height="60" as="geometry" />
        </mxCell>
        <mxCell id="Ztba5tuW2JcjVKx31SA5-23" value="" style="edgeStyle=orthogonalEdgeStyle;rounded=0;orthogonalLoop=1;jettySize=auto;html=1;endArrow=none;endFill=0;" parent="1" source="Ztba5tuW2JcjVKx31SA5-22" target="Ztba5tuW2JcjVKx31SA5-15" edge="1">
          <mxGeometry relative="1" as="geometry" />
        </mxCell>
        <mxCell id="Ztba5tuW2JcjVKx31SA5-22" value="&lt;u&gt;Személyi szám&lt;/u&gt;" style="ellipse;whiteSpace=wrap;html=1;align=center;" parent="1" vertex="1">
          <mxGeometry x="60" y="635" width="100" height="30" as="geometry" />
        </mxCell>
        <mxCell id="Ztba5tuW2JcjVKx31SA5-25" value="" style="edgeStyle=orthogonalEdgeStyle;rounded=0;orthogonalLoop=1;jettySize=auto;html=1;endArrow=none;endFill=0;entryX=0;entryY=0.75;entryDx=0;entryDy=0;" parent="1" source="Ztba5tuW2JcjVKx31SA5-24" target="Ztba5tuW2JcjVKx31SA5-15" edge="1">
          <mxGeometry relative="1" as="geometry" />
        </mxCell>
        <mxCell id="Ztba5tuW2JcjVKx31SA5-24" value="Név" style="ellipse;whiteSpace=wrap;html=1;align=center;" parent="1" vertex="1">
          <mxGeometry x="60" y="690" width="100" height="30" as="geometry" />
        </mxCell>
        <mxCell id="Ztba5tuW2JcjVKx31SA5-26" value="Szül. év" style="ellipse;whiteSpace=wrap;html=1;align=center;" parent="1" vertex="1">
          <mxGeometry x="400" y="535" width="100" height="30" as="geometry" />
        </mxCell>
        <mxCell id="Ztba5tuW2JcjVKx31SA5-33" value="" style="edgeStyle=orthogonalEdgeStyle;rounded=0;orthogonalLoop=1;jettySize=auto;html=1;endArrow=none;endFill=0;" parent="1" source="Ztba5tuW2JcjVKx31SA5-32" target="Ztba5tuW2JcjVKx31SA5-15" edge="1">
          <mxGeometry relative="1" as="geometry" />
        </mxCell>
        <mxCell id="Ztba5tuW2JcjVKx31SA5-35" value="" style="edgeStyle=orthogonalEdgeStyle;rounded=0;orthogonalLoop=1;jettySize=auto;html=1;endArrow=none;endFill=0;" parent="1" source="Ztba5tuW2JcjVKx31SA5-32" target="Ztba5tuW2JcjVKx31SA5-34" edge="1">
          <mxGeometry relative="1" as="geometry" />
        </mxCell>
        <mxCell id="Ztba5tuW2JcjVKx31SA5-32" value="Szállást foglal" style="shape=rhombus;perimeter=rhombusPerimeter;whiteSpace=wrap;html=1;align=center;" parent="1" vertex="1">
          <mxGeometry x="260" y="760" width="120" height="60" as="geometry" />
        </mxCell>
        <mxCell id="Ztba5tuW2JcjVKx31SA5-37" value="" style="edgeStyle=orthogonalEdgeStyle;rounded=0;orthogonalLoop=1;jettySize=auto;html=1;endArrow=none;endFill=0;" parent="1" source="Ztba5tuW2JcjVKx31SA5-34" target="Ztba5tuW2JcjVKx31SA5-36" edge="1">
          <mxGeometry relative="1" as="geometry" />
        </mxCell>
        <mxCell id="Ztba5tuW2JcjVKx31SA5-39" value="" style="edgeStyle=orthogonalEdgeStyle;rounded=0;orthogonalLoop=1;jettySize=auto;html=1;exitX=0.333;exitY=0.833;exitDx=0;exitDy=0;exitPerimeter=0;endArrow=none;endFill=0;" parent="1" source="Ztba5tuW2JcjVKx31SA5-34" target="Ztba5tuW2JcjVKx31SA5-38" edge="1">
          <mxGeometry relative="1" as="geometry" />
        </mxCell>
        <mxCell id="Ztba5tuW2JcjVKx31SA5-34" value="Szállás" style="whiteSpace=wrap;html=1;" parent="1" vertex="1">
          <mxGeometry x="260" y="900" width="120" height="60" as="geometry" />
        </mxCell>
        <mxCell id="Ztba5tuW2JcjVKx31SA5-36" value="Neve" style="ellipse;whiteSpace=wrap;html=1;" parent="1" vertex="1">
          <mxGeometry x="80" y="890" width="80" height="40" as="geometry" />
        </mxCell>
        <mxCell id="Ztba5tuW2JcjVKx31SA5-38" value="Ár (fő/éj)" style="ellipse;whiteSpace=wrap;html=1;" parent="1" vertex="1">
          <mxGeometry x="70" y="1000" width="80" height="30" as="geometry" />
        </mxCell>
        <mxCell id="Ztba5tuW2JcjVKx31SA5-41" value="" style="edgeStyle=orthogonalEdgeStyle;rounded=0;orthogonalLoop=1;jettySize=auto;html=1;endArrow=none;endFill=0;" parent="1" source="Ztba5tuW2JcjVKx31SA5-40" target="Ztba5tuW2JcjVKx31SA5-34" edge="1">
          <mxGeometry relative="1" as="geometry" />
        </mxCell>
        <mxCell id="Ztba5tuW2JcjVKx31SA5-40" value="Cím" style="ellipse;whiteSpace=wrap;html=1;" parent="1" vertex="1">
          <mxGeometry x="260" y="1020" width="80" height="30" as="geometry" />
        </mxCell>
        <mxCell id="Q6L5kooBYuRYwV42FFvs-1" value="" style="edgeStyle=orthogonalEdgeStyle;rounded=0;orthogonalLoop=1;jettySize=auto;html=1;endArrow=none;endFill=0;" parent="1" source="Ztba5tuW2JcjVKx31SA5-42" target="Ztba5tuW2JcjVKx31SA5-34" edge="1">
          <mxGeometry relative="1" as="geometry" />
        </mxCell>
        <mxCell id="Ztba5tuW2JcjVKx31SA5-42" value="&lt;u&gt;Szállás azonosító&lt;/u&gt;" style="ellipse;whiteSpace=wrap;html=1;" parent="1" vertex="1">
          <mxGeometry x="430" y="915" width="80" height="45" as="geometry" />
        </mxCell>
        <mxCell id="Q6L5kooBYuRYwV42FFvs-3" value="" style="edgeStyle=orthogonalEdgeStyle;rounded=0;orthogonalLoop=1;jettySize=auto;html=1;endArrow=none;endFill=0;" parent="1" source="Q6L5kooBYuRYwV42FFvs-2" target="Ztba5tuW2JcjVKx31SA5-15" edge="1">
          <mxGeometry relative="1" as="geometry" />
        </mxCell>
        <mxCell id="Q6L5kooBYuRYwV42FFvs-5" value="" style="edgeStyle=orthogonalEdgeStyle;rounded=0;orthogonalLoop=1;jettySize=auto;html=1;endArrow=none;endFill=0;entryX=0;entryY=0.5;entryDx=0;entryDy=0;" parent="1" source="Q6L5kooBYuRYwV42FFvs-2" target="Q6L5kooBYuRYwV42FFvs-4" edge="1">
          <mxGeometry relative="1" as="geometry">
            <mxPoint x="650" y="630" as="targetPoint" />
          </mxGeometry>
        </mxCell>
        <mxCell id="Q6L5kooBYuRYwV42FFvs-7" value="" style="edgeStyle=orthogonalEdgeStyle;rounded=0;orthogonalLoop=1;jettySize=auto;html=1;endArrow=none;endFill=0;entryX=0.5;entryY=1;entryDx=0;entryDy=0;" parent="1" source="Q6L5kooBYuRYwV42FFvs-2" target="Q6L5kooBYuRYwV42FFvs-8" edge="1">
          <mxGeometry relative="1" as="geometry">
            <mxPoint x="720" y="490" as="targetPoint" />
          </mxGeometry>
        </mxCell>
        <mxCell id="Q6L5kooBYuRYwV42FFvs-2" value="Utazik" style="shape=rhombus;perimeter=rhombusPerimeter;whiteSpace=wrap;html=1;align=center;" parent="1" vertex="1">
          <mxGeometry x="490" y="590" width="120" height="60" as="geometry" />
        </mxCell>
        <mxCell id="Q6L5kooBYuRYwV42FFvs-4" value="Légitársaság" style="whiteSpace=wrap;html=1;" parent="1" vertex="1">
          <mxGeometry x="690" y="600" width="120" height="60" as="geometry" />
        </mxCell>
        <mxCell id="Q6L5kooBYuRYwV42FFvs-8" value="Honnan" style="ellipse;whiteSpace=wrap;html=1;" parent="1" vertex="1">
          <mxGeometry x="500" y="480" width="80" height="40" as="geometry" />
        </mxCell>
        <mxCell id="Q6L5kooBYuRYwV42FFvs-10" value="" style="edgeStyle=orthogonalEdgeStyle;rounded=0;orthogonalLoop=1;jettySize=auto;html=1;endArrow=none;endFill=0;" parent="1" source="Q6L5kooBYuRYwV42FFvs-9" target="Q6L5kooBYuRYwV42FFvs-2" edge="1">
          <mxGeometry relative="1" as="geometry" />
        </mxCell>
        <mxCell id="Q6L5kooBYuRYwV42FFvs-9" value="Hova" style="ellipse;whiteSpace=wrap;html=1;" parent="1" vertex="1">
          <mxGeometry x="510" y="670" width="80" height="40" as="geometry" />
        </mxCell>
        <mxCell id="Q6L5kooBYuRYwV42FFvs-12" value="" style="edgeStyle=orthogonalEdgeStyle;rounded=0;orthogonalLoop=1;jettySize=auto;html=1;endArrow=none;endFill=0;entryX=1;entryY=0;entryDx=0;entryDy=0;" parent="1" source="Q6L5kooBYuRYwV42FFvs-11" target="Q6L5kooBYuRYwV42FFvs-2" edge="1">
          <mxGeometry relative="1" as="geometry" />
        </mxCell>
        <mxCell id="Q6L5kooBYuRYwV42FFvs-11" value="&lt;div&gt;Mikor&lt;/div&gt;" style="ellipse;whiteSpace=wrap;html=1;" parent="1" vertex="1">
          <mxGeometry x="600" y="530" width="80" height="40" as="geometry" />
        </mxCell>
        <mxCell id="HJIw_kQP0uACGpOe7ErF-8" value="" style="edgeStyle=orthogonalEdgeStyle;rounded=0;orthogonalLoop=1;jettySize=auto;html=1;endArrow=none;endFill=0;" parent="1" source="Q6L5kooBYuRYwV42FFvs-13" target="Q6L5kooBYuRYwV42FFvs-4" edge="1">
          <mxGeometry relative="1" as="geometry" />
        </mxCell>
        <mxCell id="Q6L5kooBYuRYwV42FFvs-13" value="Név" style="ellipse;whiteSpace=wrap;html=1;" parent="1" vertex="1">
          <mxGeometry x="710" y="500" width="80" height="30" as="geometry" />
        </mxCell>
        <mxCell id="HJIw_kQP0uACGpOe7ErF-9" value="" style="edgeStyle=orthogonalEdgeStyle;rounded=0;orthogonalLoop=1;jettySize=auto;html=1;endArrow=none;endFill=0;" parent="1" source="Q6L5kooBYuRYwV42FFvs-15" target="Q6L5kooBYuRYwV42FFvs-4" edge="1">
          <mxGeometry relative="1" as="geometry" />
        </mxCell>
        <mxCell id="Q6L5kooBYuRYwV42FFvs-15" value="&lt;div&gt;&lt;u&gt;Cég kód&lt;/u&gt;&lt;/div&gt;" style="ellipse;whiteSpace=wrap;html=1;" parent="1" vertex="1">
          <mxGeometry x="860" y="615" width="80" height="30" as="geometry" />
        </mxCell>
        <mxCell id="Q6L5kooBYuRYwV42FFvs-20" value="" style="edgeStyle=orthogonalEdgeStyle;rounded=0;orthogonalLoop=1;jettySize=auto;html=1;endArrow=none;endFill=0;entryX=0.197;entryY=0.021;entryDx=0;entryDy=0;entryPerimeter=0;" parent="1" source="Q6L5kooBYuRYwV42FFvs-17" target="Q6L5kooBYuRYwV42FFvs-19" edge="1">
          <mxGeometry relative="1" as="geometry">
            <Array as="points">
              <mxPoint x="772" y="800" />
            </Array>
          </mxGeometry>
        </mxCell>
        <mxCell id="HJIw_kQP0uACGpOe7ErF-6" value="" style="edgeStyle=orthogonalEdgeStyle;rounded=0;orthogonalLoop=1;jettySize=auto;html=1;entryX=0.669;entryY=0.972;entryDx=0;entryDy=0;entryPerimeter=0;" parent="1" source="Q6L5kooBYuRYwV42FFvs-17" target="Q6L5kooBYuRYwV42FFvs-4" edge="1">
          <mxGeometry relative="1" as="geometry" />
        </mxCell>
        <mxCell id="Q6L5kooBYuRYwV42FFvs-17" value="Járata" style="rhombus;whiteSpace=wrap;html=1;" parent="1" vertex="1">
          <mxGeometry x="730" y="700" width="80" height="60" as="geometry" />
        </mxCell>
        <mxCell id="Q6L5kooBYuRYwV42FFvs-22" value="" style="edgeStyle=orthogonalEdgeStyle;rounded=0;orthogonalLoop=1;jettySize=auto;html=1;endArrow=none;endFill=0;exitX=0;exitY=0;exitDx=0;exitDy=0;" parent="1" source="Q6L5kooBYuRYwV42FFvs-19" target="Q6L5kooBYuRYwV42FFvs-21" edge="1">
          <mxGeometry relative="1" as="geometry">
            <mxPoint x="860" y="830" as="sourcePoint" />
            <Array as="points">
              <mxPoint x="750" y="820" />
              <mxPoint x="650" y="820" />
            </Array>
          </mxGeometry>
        </mxCell>
        <mxCell id="Q6L5kooBYuRYwV42FFvs-19" value="Járat" style="whiteSpace=wrap;html=1;" parent="1" vertex="1">
          <mxGeometry x="750" y="840" width="110" height="40" as="geometry" />
        </mxCell>
        <mxCell id="Q6L5kooBYuRYwV42FFvs-21" value="Hova" style="ellipse;whiteSpace=wrap;html=1;" parent="1" vertex="1">
          <mxGeometry x="610" y="740" width="80" height="40" as="geometry" />
        </mxCell>
        <mxCell id="Q6L5kooBYuRYwV42FFvs-24" value="" style="edgeStyle=orthogonalEdgeStyle;rounded=0;orthogonalLoop=1;jettySize=auto;html=1;endArrow=none;endFill=0;entryX=0.064;entryY=1.025;entryDx=0;entryDy=0;entryPerimeter=0;" parent="1" source="Q6L5kooBYuRYwV42FFvs-23" target="Q6L5kooBYuRYwV42FFvs-19" edge="1">
          <mxGeometry relative="1" as="geometry" />
        </mxCell>
        <mxCell id="Q6L5kooBYuRYwV42FFvs-23" value="&lt;u&gt;Járat szám&lt;/u&gt;" style="ellipse;whiteSpace=wrap;html=1;" parent="1" vertex="1">
          <mxGeometry x="710" y="920" width="80" height="40" as="geometry" />
        </mxCell>
        <mxCell id="Q6L5kooBYuRYwV42FFvs-26" value="" style="edgeStyle=orthogonalEdgeStyle;rounded=0;orthogonalLoop=1;jettySize=auto;html=1;endArrow=none;endFill=0;entryX=0.75;entryY=1;entryDx=0;entryDy=0;" parent="1" source="Q6L5kooBYuRYwV42FFvs-25" target="Q6L5kooBYuRYwV42FFvs-19" edge="1">
          <mxGeometry relative="1" as="geometry">
            <mxPoint x="890" y="870" as="targetPoint" />
          </mxGeometry>
        </mxCell>
        <mxCell id="Q6L5kooBYuRYwV42FFvs-25" value="&lt;u&gt;Gép száma&lt;/u&gt;" style="ellipse;whiteSpace=wrap;html=1;" parent="1" vertex="1">
          <mxGeometry x="910" y="880" width="80" height="40" as="geometry" />
        </mxCell>
        <mxCell id="Q6L5kooBYuRYwV42FFvs-28" value="" style="edgeStyle=orthogonalEdgeStyle;rounded=0;orthogonalLoop=1;jettySize=auto;html=1;endArrow=none;endFill=0;" parent="1" source="Q6L5kooBYuRYwV42FFvs-27" target="Q6L5kooBYuRYwV42FFvs-19" edge="1">
          <mxGeometry relative="1" as="geometry" />
        </mxCell>
        <mxCell id="Q6L5kooBYuRYwV42FFvs-27" value="Gép típusa" style="ellipse;whiteSpace=wrap;html=1;" parent="1" vertex="1">
          <mxGeometry x="1010" y="830" width="80" height="40" as="geometry" />
        </mxCell>
        <mxCell id="Q6L5kooBYuRYwV42FFvs-30" value="" style="edgeStyle=orthogonalEdgeStyle;rounded=0;orthogonalLoop=1;jettySize=auto;html=1;endArrow=none;endFill=0;" parent="1" source="Q6L5kooBYuRYwV42FFvs-29" target="Q6L5kooBYuRYwV42FFvs-19" edge="1">
          <mxGeometry relative="1" as="geometry" />
        </mxCell>
        <mxCell id="Q6L5kooBYuRYwV42FFvs-29" value="Idő" style="ellipse;whiteSpace=wrap;html=1;" parent="1" vertex="1">
          <mxGeometry x="790" y="960" width="80" height="40" as="geometry" />
        </mxCell>
        <mxCell id="Q6L5kooBYuRYwV42FFvs-32" value="" style="edgeStyle=orthogonalEdgeStyle;rounded=0;orthogonalLoop=1;jettySize=auto;html=1;entryX=0;entryY=0.75;entryDx=0;entryDy=0;endArrow=none;endFill=0;" parent="1" source="Q6L5kooBYuRYwV42FFvs-31" target="Q6L5kooBYuRYwV42FFvs-19" edge="1">
          <mxGeometry relative="1" as="geometry" />
        </mxCell>
        <mxCell id="Q6L5kooBYuRYwV42FFvs-31" value="Honnan" style="ellipse;whiteSpace=wrap;html=1;" parent="1" vertex="1">
          <mxGeometry x="620" y="875" width="80" height="40" as="geometry" />
        </mxCell>
        <mxCell id="Q6L5kooBYuRYwV42FFvs-34" value="" style="edgeStyle=orthogonalEdgeStyle;rounded=0;orthogonalLoop=1;jettySize=auto;html=1;entryX=0.821;entryY=0.046;entryDx=0;entryDy=0;entryPerimeter=0;endArrow=none;endFill=0;" parent="1" source="Q6L5kooBYuRYwV42FFvs-33" target="Q6L5kooBYuRYwV42FFvs-19" edge="1">
          <mxGeometry relative="1" as="geometry" />
        </mxCell>
        <mxCell id="Q6L5kooBYuRYwV42FFvs-33" value="Ülőhely száma" style="ellipse;whiteSpace=wrap;html=1;" parent="1" vertex="1">
          <mxGeometry x="940" y="740" width="80" height="40" as="geometry" />
        </mxCell>
        <mxCell id="Q6L5kooBYuRYwV42FFvs-37" value="" style="edgeStyle=orthogonalEdgeStyle;rounded=0;orthogonalLoop=1;jettySize=auto;html=1;entryX=1;entryY=0.75;entryDx=0;entryDy=0;endArrow=none;endFill=0;" parent="1" source="Q6L5kooBYuRYwV42FFvs-36" target="Ztba5tuW2JcjVKx31SA5-15" edge="1">
          <mxGeometry relative="1" as="geometry" />
        </mxCell>
        <mxCell id="Q6L5kooBYuRYwV42FFvs-38" value="" style="edgeStyle=orthogonalEdgeStyle;rounded=0;orthogonalLoop=1;jettySize=auto;html=1;entryX=0;entryY=0.5;entryDx=0;entryDy=0;endArrow=none;endFill=0;" parent="1" source="Q6L5kooBYuRYwV42FFvs-36" target="Q6L5kooBYuRYwV42FFvs-19" edge="1">
          <mxGeometry relative="1" as="geometry" />
        </mxCell>
        <mxCell id="Q6L5kooBYuRYwV42FFvs-36" value="Járatot foglal" style="shape=rhombus;perimeter=rhombusPerimeter;whiteSpace=wrap;html=1;align=center;" parent="1" vertex="1">
          <mxGeometry x="425" y="810" width="120" height="60" as="geometry" />
        </mxCell>
        <mxCell id="Q6L5kooBYuRYwV42FFvs-40" value="" style="edgeStyle=orthogonalEdgeStyle;rounded=0;orthogonalLoop=1;jettySize=auto;html=1;endArrow=none;endFill=0;" parent="1" source="Q6L5kooBYuRYwV42FFvs-39" target="Q6L5kooBYuRYwV42FFvs-36" edge="1">
          <mxGeometry relative="1" as="geometry">
            <Array as="points">
              <mxPoint x="550" y="870" />
            </Array>
          </mxGeometry>
        </mxCell>
        <mxCell id="Q6L5kooBYuRYwV42FFvs-39" value="Ülőhely száma" style="ellipse;whiteSpace=wrap;html=1;align=center;" parent="1" vertex="1">
          <mxGeometry x="500" y="880" width="100" height="40" as="geometry" />
        </mxCell>
        <mxCell id="Q6L5kooBYuRYwV42FFvs-42" value="Város" style="whiteSpace=wrap;html=1;align=center;" parent="1" vertex="1">
          <mxGeometry x="580" y="1010" width="100" height="40" as="geometry" />
        </mxCell>
        <mxCell id="Q6L5kooBYuRYwV42FFvs-44" value="" style="edgeStyle=orthogonalEdgeStyle;rounded=0;orthogonalLoop=1;jettySize=auto;html=1;entryX=0.836;entryY=0.989;entryDx=0;entryDy=0;entryPerimeter=0;endArrow=none;endFill=0;" parent="1" source="Q6L5kooBYuRYwV42FFvs-43" target="Ztba5tuW2JcjVKx31SA5-34" edge="1">
          <mxGeometry relative="1" as="geometry" />
        </mxCell>
        <mxCell id="Q6L5kooBYuRYwV42FFvs-45" value="" style="edgeStyle=orthogonalEdgeStyle;rounded=0;orthogonalLoop=1;jettySize=auto;html=1;endArrow=none;endFill=0;" parent="1" source="Q6L5kooBYuRYwV42FFvs-43" target="Q6L5kooBYuRYwV42FFvs-42" edge="1">
          <mxGeometry relative="1" as="geometry" />
        </mxCell>
        <mxCell id="Q6L5kooBYuRYwV42FFvs-43" value="&lt;div&gt;Hol&lt;/div&gt;" style="shape=rhombus;perimeter=rhombusPerimeter;whiteSpace=wrap;html=1;align=center;" parent="1" vertex="1">
          <mxGeometry x="390" y="1000" width="120" height="60" as="geometry" />
        </mxCell>
        <mxCell id="Q6L5kooBYuRYwV42FFvs-49" value="" style="edgeStyle=orthogonalEdgeStyle;rounded=0;orthogonalLoop=1;jettySize=auto;html=1;endArrow=none;endFill=0;" parent="1" source="Q6L5kooBYuRYwV42FFvs-46" target="Q6L5kooBYuRYwV42FFvs-42" edge="1">
          <mxGeometry relative="1" as="geometry">
            <Array as="points">
              <mxPoint x="600" y="1060" />
              <mxPoint x="600" y="1060" />
            </Array>
          </mxGeometry>
        </mxCell>
        <mxCell id="Q6L5kooBYuRYwV42FFvs-46" value="&lt;div&gt;Neve&lt;/div&gt;" style="ellipse;whiteSpace=wrap;html=1;align=center;" parent="1" vertex="1">
          <mxGeometry x="530" y="1110" width="100" height="40" as="geometry" />
        </mxCell>
        <mxCell id="Q6L5kooBYuRYwV42FFvs-50" value="" style="edgeStyle=orthogonalEdgeStyle;rounded=0;orthogonalLoop=1;jettySize=auto;html=1;entryX=0.588;entryY=1.014;entryDx=0;entryDy=0;entryPerimeter=0;endArrow=none;endFill=0;" parent="1" source="Q6L5kooBYuRYwV42FFvs-47" target="Q6L5kooBYuRYwV42FFvs-42" edge="1">
          <mxGeometry relative="1" as="geometry">
            <Array as="points">
              <mxPoint x="690" y="1080" />
              <mxPoint x="639" y="1080" />
            </Array>
          </mxGeometry>
        </mxCell>
        <mxCell id="Q6L5kooBYuRYwV42FFvs-47" value="&lt;u&gt;Kód&lt;/u&gt;" style="ellipse;whiteSpace=wrap;html=1;align=center;" parent="1" vertex="1">
          <mxGeometry x="640" y="1110" width="100" height="40" as="geometry" />
        </mxCell>
        <mxCell id="Q6L5kooBYuRYwV42FFvs-51" value="" style="edgeStyle=orthogonalEdgeStyle;rounded=0;orthogonalLoop=1;jettySize=auto;html=1;endArrow=none;endFill=0;" parent="1" source="Q6L5kooBYuRYwV42FFvs-48" target="Q6L5kooBYuRYwV42FFvs-42" edge="1">
          <mxGeometry relative="1" as="geometry" />
        </mxCell>
        <mxCell id="Q6L5kooBYuRYwV42FFvs-48" value="Ország" style="ellipse;whiteSpace=wrap;html=1;align=center;" parent="1" vertex="1">
          <mxGeometry x="720" y="1010" width="100" height="40" as="geometry" />
        </mxCell>
      </root>
    </mxGraphModel>
  </diagram>
  <diagram id="EnkI5HvbyNfnTatHpJCx" name="Egyedkapcsolat diagram">
    <mxGraphModel dx="1434" dy="774" grid="1" gridSize="10" guides="1" tooltips="1" connect="1" arrows="1" fold="1" page="1" pageScale="1" pageWidth="850" pageHeight="1100" math="0" shadow="0">
      <root>
        <mxCell id="0" />
        <mxCell id="1" parent="0" />
        <mxCell id="aeez3_Q9YbvH9eefdLAx-8" value="Biztosítás" style="whiteSpace=wrap;html=1;align=center;" vertex="1" parent="1">
          <mxGeometry x="270" y="480" width="100" height="40" as="geometry" />
        </mxCell>
        <mxCell id="aeez3_Q9YbvH9eefdLAx-11" value="" style="edgeStyle=orthogonalEdgeStyle;rounded=0;orthogonalLoop=1;jettySize=auto;html=1;endArrow=classic;endFill=1;exitX=0.5;exitY=1;exitDx=0;exitDy=0;" edge="1" parent="1" source="aeez3_Q9YbvH9eefdLAx-8" target="aeez3_Q9YbvH9eefdLAx-14">
          <mxGeometry relative="1" as="geometry">
            <mxPoint x="320" y="540" as="sourcePoint" />
          </mxGeometry>
        </mxCell>
        <mxCell id="aeez3_Q9YbvH9eefdLAx-14" value="Személy" style="whiteSpace=wrap;html=1;" vertex="1" parent="1">
          <mxGeometry x="260" y="620" width="120" height="60" as="geometry" />
        </mxCell>
        <mxCell id="aeez3_Q9YbvH9eefdLAx-21" value="" style="edgeStyle=orthogonalEdgeStyle;rounded=0;orthogonalLoop=1;jettySize=auto;html=1;endArrow=none;endFill=0;exitX=0.5;exitY=1;exitDx=0;exitDy=0;" edge="1" parent="1" source="aeez3_Q9YbvH9eefdLAx-14" target="aeez3_Q9YbvH9eefdLAx-25">
          <mxGeometry relative="1" as="geometry">
            <mxPoint x="320" y="820" as="sourcePoint" />
          </mxGeometry>
        </mxCell>
        <mxCell id="aeez3_Q9YbvH9eefdLAx-25" value="Szállás" style="whiteSpace=wrap;html=1;" vertex="1" parent="1">
          <mxGeometry x="260" y="900" width="120" height="60" as="geometry" />
        </mxCell>
        <mxCell id="aeez3_Q9YbvH9eefdLAx-32" value="" style="edgeStyle=orthogonalEdgeStyle;rounded=0;orthogonalLoop=1;jettySize=auto;html=1;endArrow=none;endFill=0;exitX=0;exitY=0.5;exitDx=0;exitDy=0;" edge="1" parent="1" source="aeez3_Q9YbvH9eefdLAx-36" target="aeez3_Q9YbvH9eefdLAx-14">
          <mxGeometry relative="1" as="geometry">
            <mxPoint x="490" y="620" as="sourcePoint" />
          </mxGeometry>
        </mxCell>
        <mxCell id="aeez3_Q9YbvH9eefdLAx-36" value="Légitársaság" style="whiteSpace=wrap;html=1;" vertex="1" parent="1">
          <mxGeometry x="520" y="620" width="120" height="60" as="geometry" />
        </mxCell>
        <mxCell id="aeez3_Q9YbvH9eefdLAx-47" value="" style="edgeStyle=orthogonalEdgeStyle;rounded=0;orthogonalLoop=1;jettySize=auto;html=1;entryX=0.5;entryY=1;entryDx=0;entryDy=0;exitX=0.5;exitY=0;exitDx=0;exitDy=0;" edge="1" parent="1" source="aeez3_Q9YbvH9eefdLAx-50" target="aeez3_Q9YbvH9eefdLAx-36">
          <mxGeometry relative="1" as="geometry">
            <mxPoint x="770" y="700" as="sourcePoint" />
          </mxGeometry>
        </mxCell>
        <mxCell id="aeez3_Q9YbvH9eefdLAx-50" value="Járat" style="whiteSpace=wrap;html=1;" vertex="1" parent="1">
          <mxGeometry x="525" y="840" width="110" height="40" as="geometry" />
        </mxCell>
        <mxCell id="aeez3_Q9YbvH9eefdLAx-64" value="" style="edgeStyle=orthogonalEdgeStyle;rounded=0;orthogonalLoop=1;jettySize=auto;html=1;entryX=0;entryY=0.5;entryDx=0;entryDy=0;endArrow=none;endFill=0;exitX=0.75;exitY=1;exitDx=0;exitDy=0;" edge="1" parent="1" source="aeez3_Q9YbvH9eefdLAx-14" target="aeez3_Q9YbvH9eefdLAx-50">
          <mxGeometry relative="1" as="geometry">
            <mxPoint x="545" y="840" as="sourcePoint" />
          </mxGeometry>
        </mxCell>
        <mxCell id="aeez3_Q9YbvH9eefdLAx-68" value="Város" style="whiteSpace=wrap;html=1;align=center;" vertex="1" parent="1">
          <mxGeometry x="270" y="1030" width="100" height="40" as="geometry" />
        </mxCell>
        <mxCell id="aeez3_Q9YbvH9eefdLAx-70" value="" style="edgeStyle=orthogonalEdgeStyle;rounded=0;orthogonalLoop=1;jettySize=auto;html=1;endArrow=none;endFill=0;exitX=0.5;exitY=1;exitDx=0;exitDy=0;" edge="1" parent="1" source="aeez3_Q9YbvH9eefdLAx-25" target="aeez3_Q9YbvH9eefdLAx-68">
          <mxGeometry relative="1" as="geometry">
            <mxPoint x="510" y="1030" as="sourcePoint" />
          </mxGeometry>
        </mxCell>
        <mxCell id="aeez3_Q9YbvH9eefdLAx-79" style="edgeStyle=orthogonalEdgeStyle;rounded=0;orthogonalLoop=1;jettySize=auto;html=1;exitX=0.5;exitY=1;exitDx=0;exitDy=0;" edge="1" parent="1" source="aeez3_Q9YbvH9eefdLAx-50" target="aeez3_Q9YbvH9eefdLAx-50">
          <mxGeometry relative="1" as="geometry" />
        </mxCell>
      </root>
    </mxGraphModel>
  </diagram>
</mxfile>
